<svg width="14" height="10" viewBox="0 0 14 10" fill="none" xmlns="http://www.w3.org/2000/svg">
<g id="arrow-left">
<path id="c" fill-rule="evenodd" clip-rule="evenodd" d="M9.26083 9.75849C9.15914 9.86019 9.03033 9.90764 8.90152 9.90764C8.77271 9.90764 8.63712 9.86019 8.5422 9.75849C8.3456 9.56189 8.3456 9.23647 8.5422 9.03987L11.7896 5.79243H1.49097C1.21301 5.79243 0.982508 5.56192 0.982508 5.28397C0.982508 5.00601 1.21301 4.7755 1.49097 4.7755H11.7895L8.5422 1.52819C8.3456 1.33158 8.3456 1.00617 8.5422 0.809563C8.73881 0.612958 9.06423 0.612958 9.26083 0.809563L13.376 4.92472C13.5726 5.12132 13.5726 5.44674 13.376 5.64334L9.26083 9.75849Z" fill="#DD9800"/>
</g>
</svg>
