<svg width="40" height="40" viewBox="0 0 40 40" fill="none" xmlns="http://www.w3.org/2000/svg">
<g id="Edit">
<path id="Rectangle 1" d="M9.16248 24.5258L10.0298 25.0169L9.16248 24.5259C9.0256 24.7676 8.96053 25.0313 8.90913 25.2396C8.90446 25.2585 8.8999 25.277 8.89542 25.2949L7.56522 30.6157L8.5335 30.8577L7.56522 30.6157C7.56242 30.6269 7.5595 30.6385 7.55648 30.6505C7.51966 30.797 7.46866 30.9999 7.45109 31.1795C7.43087 31.3862 7.42418 31.8382 7.79296 32.207L8.50007 31.4999L7.79296 32.207C8.16174 32.5757 8.6137 32.5691 8.82039 32.5488C9.00001 32.5313 9.20294 32.4803 9.34942 32.4434C9.36142 32.4404 9.37304 32.4375 9.38424 32.4347L14.705 31.1045C14.723 31.1 14.7414 31.0955 14.7603 31.0908C14.9686 31.0394 15.2323 30.9743 15.4741 30.8374C15.7158 30.7005 15.9073 30.5079 16.0585 30.3557C16.0723 30.3419 16.0857 30.3285 16.0987 30.3154L29.2928 17.1213L29.3313 17.0829C29.6312 16.7831 29.9227 16.4917 30.1307 16.219C30.3653 15.9116 30.5857 15.5137 30.5857 15C30.5857 14.4863 30.3653 14.0884 30.1307 13.781C29.9227 13.5083 29.6312 13.217 29.3313 12.9172L29.2928 12.8787L27.1212 10.7071L27.0828 10.6686C26.783 10.3687 26.4916 10.0772 26.2189 9.86919C25.9115 9.63466 25.5136 9.41421 24.9999 9.41421C24.4863 9.41421 24.0883 9.63466 23.7809 9.86919C23.5082 10.0772 23.2169 10.3687 22.9171 10.6686C22.9043 10.6814 22.8914 10.6943 22.8786 10.7071L9.68453 23.9012C9.67145 23.9143 9.65797 23.9276 9.64416 23.9414C9.49199 24.0926 9.29937 24.2841 9.16248 24.5258Z" stroke="#787878" stroke-width="2"/>
<path id="Vector 107" d="M20.8333 12.5003L25.8333 9.16699L30.8333 14.167L27.4999 19.167L20.8333 12.5003Z" fill="#787878"/>
</g>
</svg>
