<svg width="64" height="64" viewBox="0 0 64 64" fill="none" xmlns="http://www.w3.org/2000/svg">
<g id="Group">
<path id="Vector" d="M19.5853 61.0201C24.2765 59.1069 28.6958 56.5788 32.7072 53.5041C36.0387 50.976 39.1662 48.2429 42.0897 45.3048C43.6534 43.7333 45.1492 42.0935 46.577 40.4536C59.359 25.7633 66.2938 9.15974 60.5148 3.35192C54.7357 -2.4559 38.1463 4.44515 23.5287 17.359C21.8969 18.7939 20.2652 20.2971 18.7694 21.8686C15.7779 24.8067 12.9903 27.9497 10.5427 31.2978C7.48321 35.3291 4.89962 39.7703 3.06391 44.4849C0.548311 51.2493 0.75228 56.9205 3.94777 60.2002C7.14326 63.4799 12.7864 63.6165 19.5853 61.0201Z" fill="#65D6CE"/>
<path id="Vector_2" d="M42.022 45.3048C43.5857 43.7333 45.0815 42.0935 46.5092 40.4536L44.9455 18.9988L23.5289 17.359C21.8972 18.7939 20.3334 20.2971 18.7697 21.8686C15.7781 24.8067 12.9906 27.9497 10.543 31.2978L30.2598 33.7575L32.7074 53.5041C35.9709 50.976 39.0984 48.2429 42.022 45.3048Z" fill="#FFE36E"/>
<path id="Vector_3" d="M62.0112 53.6408L55.2802 46.8764C53.4445 45.0315 50.521 45.0315 48.6853 46.8764L47.0535 48.5846C45.2178 50.4294 45.2178 53.3675 47.0535 55.2123L53.7845 61.9767C54.8723 63.0699 56.708 63.0699 57.7958 61.9767L62.0791 57.6721C63.099 56.5105 63.099 54.734 62.0112 53.6408Z" fill="#3980E5"/>
<path id="Vector_4" d="M32.844 9.97966C32.504 9.43304 32.64 8.68144 33.1839 8.3398L33.7958 7.92984C34.3397 7.5882 35.0876 7.72486 35.4276 8.27148C35.7675 8.81809 35.6315 9.56969 35.0876 9.91133L34.4757 10.3213C33.9318 10.6629 33.1839 10.5263 32.844 9.97966ZM18.6342 20.0921L8.29988 9.77468C7.82395 9.29639 7.82395 8.54479 8.29988 8.06649C8.7758 7.5882 9.52368 7.5882 9.9996 8.06649L20.334 18.4522C22.6456 16.3341 24.9572 14.3526 27.2009 12.5761C27.7448 12.1661 28.4927 12.2345 28.9006 12.7811C29.3085 13.3277 29.2405 14.0793 28.6966 14.4893C27.9487 15.1042 27.2009 15.7191 26.385 16.3341L44.946 17.769C45.5579 17.8373 45.9659 18.3156 46.0339 18.8622L47.3936 37.4472C58.8158 23.5085 64.255 8.88642 59.4957 4.17184C56.5722 1.23377 49.6373 2.12203 41.0027 6.49497C40.3908 6.76828 39.7109 6.5633 39.3709 5.94835C39.099 5.33341 39.3029 4.65013 39.9148 4.3085C49.6373 -0.679392 57.456 -1.36266 61.1954 2.39533C69.4221 10.6629 55.4844 32.4593 45.286 43.46L47.8016 45.9881C50.1132 43.665 53.7846 43.665 56.0963 45.9881L62.8272 52.7525C64.3909 54.324 64.3909 56.8521 62.8272 58.492L58.5439 62.7966C56.9801 64.3681 54.4645 64.3681 52.8328 62.7966L46.1019 56.0322C43.7902 53.7091 43.7902 50.0194 46.1019 47.6963L43.6542 45.2365C40.4588 48.5162 37.1953 51.4543 33.3199 54.4607C25.1612 60.8151 10.2036 68.2628 2.99672 61.0201C-4.27812 53.7091 3.20069 38.7454 9.45569 30.6145C12.5152 26.4465 15.3028 23.3718 18.6342 20.0921ZM46.7138 51.8643C46.7138 52.8208 47.0537 53.7091 47.7336 54.324L54.4645 61.0884C55.1444 61.7034 56.0963 61.7034 56.7762 61.0884L61.0595 56.7838C61.6714 56.1689 61.6714 55.0756 61.0595 54.4607L54.3285 47.6963C52.9688 46.3298 50.7931 46.3298 49.4333 47.6963L47.7336 49.4045C47.1217 50.0877 46.7138 50.976 46.7138 51.8643ZM31.2802 52.9575L29.0366 34.8508L10.9515 32.596C5.71629 39.497 -1.42258 53.2308 4.62846 59.3119C10.6795 65.4614 24.4133 58.1504 31.2802 52.9575ZM22.0337 20.1604L43.5863 41.8202L45.218 39.9753L43.7222 20.0238L23.8014 18.5206C23.1895 19.0672 22.5776 19.6138 22.0337 20.1604ZM12.5832 30.3412L30.1924 32.5276C30.7363 32.596 31.1442 33.0059 31.2122 33.5526L33.4559 51.2493C36.5834 48.7212 39.3029 46.2614 41.9545 43.5283L20.266 21.8003C17.6144 24.465 15.1668 27.0615 12.5832 30.3412Z" fill="#1D0663"/>
</g>
</svg>
