<svg width="64" height="64" viewBox="0 0 64 64" fill="none" xmlns="http://www.w3.org/2000/svg">
<g id="Group">
<path id="Vector" d="M0.494141 55.0674H63.5067V64H0.494141V55.0674Z" fill="#6394FF"/>
<path id="Vector_2" d="M28.0996 49.5485L63.507 49.5091C63.507 49.5091 61.6446 53.067 56.1035 55.0727H30.217C30.217 55.0727 27.2084 52.8664 28.0996 49.5485Z" fill="#EBA453"/>
<path id="Vector_3" d="M31.2207 49.5458C31.2207 49.5458 32.1519 46.5045 35.663 44.3258H45.5502L53.2874 49.5104L31.2207 49.5458Z" fill="#ABF5FF"/>
<path id="Vector_4" d="M1.99088 24.7905C1.99088 24.7905 -3.73765 13.3856 7.21943 5.06124C18.8215 -3.75859 27.9849 2.35945 30.556 5.84779C30.556 5.84517 23.935 19.2309 1.99088 24.7905Z" fill="#DD9800"/>
<path id="Vector_5" d="M23.9683 29.5885L25.7382 33.4426C25.8847 33.7614 26.137 34.0132 26.4478 34.151C26.7587 34.2888 27.1067 34.303 27.4269 34.1911C27.756 34.0758 28.032 33.8354 28.2004 33.5173C28.3688 33.1992 28.4175 32.8264 28.3368 32.4725L27.3794 28.2775C27.3391 28.1012 27.2632 27.9359 27.1569 27.7929C27.0506 27.6498 26.9162 27.5324 26.7629 27.4484C26.6097 27.3644 26.441 27.3159 26.2683 27.306C26.0957 27.2962 25.923 27.3253 25.7619 27.3914L24.617 27.862C24.4626 27.9258 24.3223 28.0222 24.205 28.1453C24.0876 28.2684 23.9957 28.4154 23.9348 28.5774C23.874 28.7393 23.8456 28.9126 23.8513 29.0866C23.8571 29.2605 23.8969 29.4313 23.9683 29.5885Z" fill="#593D00"/>
<path id="Vector_6" d="M40.9266 44.3232H35.663C32.1519 46.5019 31.2207 49.5432 31.2207 49.5432H34.8131C34.8131 49.5432 37.1605 45.4322 40.9266 44.3232Z" fill="#FF758B"/>
<path id="Vector_7" d="M35.6609 44.8475H31.2185C31.0879 44.8475 30.9627 44.7931 30.8703 44.6962C30.7779 44.5994 30.7261 44.468 30.7261 44.331C30.7261 44.194 30.7779 44.0627 30.8703 43.9658C30.9627 43.8689 31.0879 43.8145 31.2185 43.8145H35.6609C35.7915 43.8145 35.9167 43.8689 36.0091 43.9658C36.1015 44.0627 36.1533 44.194 36.1533 44.331C36.1533 44.468 36.1015 44.5994 36.0091 44.6962C35.9167 44.7931 35.7915 44.8475 35.6609 44.8475ZM30.2161 55.5865C25.4813 55.5865 22.7464 52.7746 22.6326 52.6553C22.5443 52.5577 22.4959 52.4277 22.4976 52.2931C22.4993 52.1585 22.5511 52.03 22.6418 51.9348C22.7326 51.8396 22.8551 51.7854 22.9835 51.7836C23.1118 51.7818 23.2357 51.8326 23.3288 51.9252C23.3688 51.9658 25.9187 54.5548 30.2173 54.5548C30.3479 54.5548 30.4732 54.6093 30.5656 54.7061C30.6579 54.803 30.7098 54.9344 30.7098 55.0713C30.7098 55.2083 30.6579 55.3397 30.5656 55.4366C30.4732 55.5334 30.3479 55.5879 30.2173 55.5879L30.2161 55.5865ZM3.91958 55.5839H0.493458C0.362844 55.5839 0.237579 55.5295 0.145221 55.4326C0.0528628 55.3358 0.000976563 55.2044 0.000976562 55.0674C0.000976563 54.9304 0.0528628 54.7991 0.145221 54.7022C0.237579 54.6053 0.362844 54.5509 0.493458 54.5509H3.91958C4.05019 54.5509 4.17546 54.6053 4.26781 54.7022C4.36017 54.7991 4.41206 54.9304 4.41206 55.0674C4.41206 55.2044 4.36017 55.3358 4.26781 55.4326C4.17546 55.5295 4.05019 55.5839 3.91958 55.5839ZM21.9664 55.5839H7.37569C7.24475 55.5839 7.11917 55.5294 7.02657 55.4323C6.93398 55.3351 6.88196 55.2034 6.88196 55.0661C6.88196 54.9288 6.93398 54.7971 7.02657 54.7C7.11917 54.6029 7.24475 54.5483 7.37569 54.5483H19.6252C18.6703 53.9754 18.224 53.4851 18.1953 53.4524C18.1119 53.3517 18.0688 53.2211 18.0752 53.0879C18.0815 52.9547 18.1367 52.8292 18.2293 52.7377C18.3218 52.6463 18.4445 52.5959 18.5717 52.5971C18.6988 52.5984 18.8206 52.6512 18.9115 52.7445C18.924 52.7576 19.9015 53.8089 22.1251 54.5798C22.2361 54.6183 22.3304 54.697 22.3911 54.8018C22.4518 54.9066 22.475 55.0306 22.4565 55.1517C22.438 55.2728 22.3791 55.383 22.2902 55.4627C22.2013 55.5423 22.0883 55.5863 21.9714 55.5865L21.9664 55.5839ZM56.1026 55.5865C55.972 55.5865 55.8467 55.5321 55.7543 55.4353C55.662 55.3384 55.6101 55.207 55.6101 55.07C55.6101 54.9331 55.662 54.8017 55.7543 54.7048C55.8467 54.608 55.972 54.5535 56.1026 54.5535H63.506C63.6367 54.5535 63.7619 54.608 63.8543 54.7048C63.9466 54.8017 63.9985 54.9331 63.9985 55.07C63.9985 55.207 63.9466 55.3384 63.8543 55.4353C63.7619 55.5321 63.6367 55.5865 63.506 55.5865H56.1026ZM7.39569 23.6828C7.29595 23.6824 7.19868 23.6502 7.11677 23.5905C7.03485 23.5308 6.97215 23.4464 6.93696 23.3485C5.09703 18.3919 5.54576 13.3384 6.25074 9.97717C7.00071 6.33676 8.17941 3.89715 8.22941 3.7949C8.26585 3.72036 8.31902 3.65623 8.38435 3.60804C8.44967 3.55986 8.52519 3.52905 8.6044 3.51829C8.71814 3.50125 11.4218 3.11453 15.1116 3.73722C18.5228 4.31271 23.4388 5.90154 27.4862 10.2027C27.5335 10.2505 27.5713 10.3078 27.5972 10.3712C27.6231 10.4345 27.6366 10.5027 27.637 10.5717C27.6373 10.6406 27.6245 10.7089 27.5993 10.7726C27.5741 10.8363 27.537 10.894 27.4902 10.9425C27.4434 10.9909 27.3878 11.0289 27.3267 11.0545C27.2657 11.08 27.2003 11.0924 27.1346 11.091C27.0689 11.0896 27.0041 11.0745 26.944 11.0464C26.884 11.0183 26.8299 10.9779 26.785 10.9276C22.9313 6.8336 18.2415 5.31556 14.9854 4.76628C13.0062 4.42094 10.9938 4.33507 8.99438 4.51066C8.30691 6.07065 4.80204 14.7489 7.85443 22.9788C7.88349 23.0571 7.89392 23.1416 7.88481 23.2251C7.87569 23.3085 7.84731 23.3884 7.80212 23.4577C7.75693 23.5271 7.6963 23.5838 7.62548 23.623C7.55466 23.6623 7.47578 23.6828 7.39569 23.6828Z" fill="black"/>
<path id="Vector_8" d="M17.0218 19.2545C16.9129 19.2545 16.8072 19.2167 16.721 19.1469C16.6349 19.0772 16.5732 18.9795 16.5455 18.8691C16.5255 18.7905 14.5069 10.9394 8.31835 4.39399C8.27079 4.34634 8.2328 4.28919 8.20664 4.2259C8.18048 4.1626 8.16668 4.09446 8.16604 4.02548C8.1654 3.9565 8.17795 3.88809 8.20293 3.82427C8.22792 3.76046 8.26484 3.70255 8.31151 3.65394C8.35819 3.60534 8.41368 3.56704 8.4747 3.54129C8.53572 3.51555 8.60104 3.50288 8.66681 3.50405C8.73257 3.50521 8.79745 3.52018 8.85761 3.54807C8.91777 3.57596 8.97199 3.6162 9.01707 3.66643C15.4006 10.4176 17.4143 18.2766 17.498 18.6109C17.5171 18.6873 17.5193 18.7672 17.5043 18.8447C17.4893 18.9221 17.4576 18.9948 17.4116 19.0574C17.3656 19.1199 17.3066 19.1706 17.239 19.2054C17.1714 19.2403 17.0971 19.2584 17.0218 19.2585V19.2545Z" fill="black"/>
<path id="Vector_9" d="M25.0287 28.1989H24.97L1.93213 25.3005C1.86644 25.2943 1.8026 25.2744 1.7444 25.2419C1.68619 25.2094 1.6348 25.165 1.59328 25.1112C1.55176 25.0575 1.52095 24.9956 1.50268 24.9291C1.48441 24.8627 1.47905 24.793 1.48692 24.7244C1.49479 24.6557 1.51573 24.5894 1.54849 24.5294C1.58126 24.4693 1.62519 24.4168 1.67767 24.375C1.73015 24.3331 1.79011 24.3027 1.85401 24.2856C1.9179 24.2685 1.98442 24.265 2.04962 24.2753L24.6613 27.1213L30.0798 5.71277C30.0933 5.64402 30.12 5.57888 30.1583 5.52131C30.1965 5.46375 30.2456 5.41497 30.3025 5.37796C30.3593 5.34094 30.4228 5.31647 30.489 5.30604C30.5551 5.2956 30.6226 5.29942 30.6874 5.31726C30.7521 5.3351 30.8127 5.36658 30.8654 5.40979C30.9181 5.45301 30.9619 5.50704 30.9941 5.56858C31.0262 5.63013 31.0461 5.69791 31.0525 5.76778C31.0588 5.83765 31.0515 5.90814 31.031 5.97495L25.5012 27.82C25.4726 27.9286 25.411 28.0243 25.3257 28.0927C25.2404 28.1611 25.1361 28.1984 25.0287 28.1989ZM38.0507 44.8475C37.9796 44.8479 37.9092 44.832 37.8444 44.801C37.7797 44.77 37.7221 44.7246 37.6758 44.6679L27.9636 32.8107C27.8786 32.7064 27.8366 32.5709 27.8468 32.4341C27.857 32.2973 27.9186 32.1704 28.018 32.0812C28.1175 31.992 28.2466 31.9479 28.3771 31.9586C28.5075 31.9693 28.6286 32.0339 28.7136 32.1382L38.4257 43.9954C38.4869 44.0705 38.5263 44.1624 38.5392 44.2603C38.5521 44.3581 38.538 44.4578 38.4985 44.5475C38.4591 44.6372 38.3959 44.7131 38.3165 44.7663C38.2372 44.8195 38.1449 44.8477 38.0507 44.8475ZM32.4472 60.3766H26.5987C26.534 60.3766 26.47 60.3633 26.4102 60.3373C26.3505 60.3114 26.2962 60.2733 26.2504 60.2253C26.2047 60.1774 26.1684 60.1204 26.1437 60.0578C26.1189 59.9951 26.1062 59.928 26.1062 59.8601C26.1062 59.7923 26.1189 59.7251 26.1437 59.6625C26.1684 59.5998 26.2047 59.5429 26.2504 59.4949C26.2962 59.4469 26.3505 59.4089 26.4102 59.3829C26.47 59.357 26.534 59.3436 26.5987 59.3436H32.4472C32.5778 59.3436 32.7031 59.398 32.7954 59.4949C32.8878 59.5918 32.9397 59.7231 32.9397 59.8601C32.9397 59.9971 32.8878 60.1285 32.7954 60.2253C32.7031 60.3222 32.5778 60.3766 32.4472 60.3766ZM47.2866 59.2492H44.1618C44.0312 59.2492 43.9059 59.1948 43.8135 59.098C43.7212 59.0011 43.6693 58.8697 43.6693 58.7327C43.6693 58.5958 43.7212 58.4644 43.8135 58.3675C43.9059 58.2707 44.0312 58.2162 44.1618 58.2162H47.2866C47.3513 58.2162 47.4154 58.2296 47.4751 58.2556C47.5349 58.2815 47.5891 58.3196 47.6349 58.3675C47.6806 58.4155 47.7169 58.4724 47.7416 58.5351C47.7664 58.5978 47.7791 58.6649 47.7791 58.7327C47.7791 58.8006 47.7664 58.8677 47.7416 58.9304C47.7169 58.9931 47.6806 59.05 47.6349 59.098C47.5891 59.1459 47.5349 59.184 47.4751 59.2099C47.4154 59.2359 47.3513 59.2492 47.2866 59.2492ZM60.9149 61.137H54.4151C54.2845 61.137 54.1592 61.0825 54.0669 60.9857C53.9745 60.8888 53.9226 60.7574 53.9226 60.6205C53.9226 60.4835 53.9745 60.3521 54.0669 60.2552C54.1592 60.1584 54.2845 60.104 54.4151 60.104H60.9149C61.0455 60.104 61.1707 60.1584 61.2631 60.2552C61.3555 60.3521 61.4074 60.4835 61.4074 60.6205C61.4074 60.7574 61.3555 60.8888 61.2631 60.9857C61.1707 61.0825 61.0455 61.137 60.9149 61.137ZM17.0228 58.1966H12.8455C12.7148 58.1966 12.5896 58.1422 12.4972 58.0453C12.4049 57.9484 12.353 57.8171 12.353 57.6801C12.353 57.5431 12.4049 57.4117 12.4972 57.3149C12.5896 57.218 12.7148 57.1636 12.8455 57.1636H17.0228C17.1534 57.1636 17.2787 57.218 17.371 57.3149C17.4634 57.4117 17.5153 57.5431 17.5153 57.6801C17.5153 57.8171 17.4634 57.9484 17.371 58.0453C17.2787 58.1422 17.1534 58.1966 17.0228 58.1966ZM12.1792 61.0386H5.71073C5.58012 61.0386 5.45485 60.9842 5.3625 60.8874C5.27014 60.7905 5.21825 60.6591 5.21825 60.5221C5.21825 60.3852 5.27014 60.2538 5.3625 60.1569C5.45485 60.0601 5.58012 60.0056 5.71073 60.0056H12.1792C12.3098 60.0056 12.4351 60.0601 12.5275 60.1569C12.6198 60.2538 12.6717 60.3852 12.6717 60.5221C12.6717 60.6591 12.6198 60.7905 12.5275 60.8874C12.4351 60.9842 12.3098 61.0386 12.1792 61.0386ZM36.5746 55.5865H30.2173C30.1167 55.5864 30.0185 55.5539 29.9361 55.4935C29.8011 55.3951 26.6512 53.0381 27.6274 49.4082C27.6565 49.2999 27.7186 49.2046 27.8041 49.1367C27.8896 49.0688 27.9939 49.032 28.1011 49.032L56.1001 49.0018C56.2307 49.0018 56.3559 49.0562 56.4483 49.1531C56.5407 49.25 56.5925 49.3813 56.5925 49.5183C56.5925 49.6553 56.5407 49.7867 56.4483 49.8835C56.3559 49.9804 56.2307 50.0348 56.1001 50.0348L28.4849 50.065C28.0661 52.4613 29.8848 54.1445 30.376 54.5483H36.5696C36.7002 54.5483 36.8254 54.6027 36.9178 54.6996C37.0101 54.7964 37.062 54.9278 37.062 55.0648C37.062 55.2018 37.0101 55.3332 36.9178 55.43C36.8254 55.5269 36.7002 55.5813 36.5696 55.5813L36.5746 55.5865Z" fill="black"/>
<path id="Vector_10" d="M56.1037 55.5865H39.0556C38.925 55.5865 38.7997 55.5321 38.7074 55.4353C38.615 55.3384 38.5631 55.207 38.5631 55.07C38.5631 54.9331 38.615 54.8017 38.7074 54.7048C38.7997 54.608 38.925 54.5535 39.0556 54.5535H56.0212C59.7211 53.1967 61.7047 51.1347 62.5572 50.027H59.8073C59.6767 50.027 59.5514 49.9725 59.4591 49.8757C59.3667 49.7788 59.3148 49.6474 59.3148 49.5104C59.3148 49.3735 59.3667 49.2421 59.4591 49.1452C59.5514 49.0484 59.6767 48.9939 59.8073 48.9939H63.5084C63.5938 48.9941 63.6777 49.0176 63.7519 49.062C63.826 49.1064 63.8879 49.1703 63.9314 49.2474C63.9748 49.3245 63.9985 49.4121 63.9999 49.5017C64.0014 49.5912 63.9806 49.6796 63.9396 49.7582C63.8596 49.9103 61.921 53.5127 56.2649 55.5577C56.2131 55.5767 56.1586 55.5864 56.1037 55.5865ZM31.2196 50.0623C31.1421 50.0623 31.0658 50.043 30.9967 50.0062C30.9276 49.9693 30.8678 49.9159 30.8221 49.8503C30.7765 49.7846 30.7462 49.7086 30.7338 49.6283C30.7215 49.5481 30.7273 49.4659 30.7509 49.3885C30.7909 49.2574 31.7809 46.1348 35.4107 43.8827C35.4864 43.8357 35.5727 43.8108 35.6607 43.8106H45.5478C45.6418 43.8106 45.7337 43.8388 45.8128 43.8919L53.55 49.0765C53.6397 49.1366 53.7084 49.2255 53.7458 49.33C53.7833 49.4344 53.7875 49.5488 53.7578 49.6559C53.7281 49.7631 53.6661 49.8572 53.5811 49.9244C53.4961 49.9915 53.3927 50.0279 53.2863 50.0283L31.2196 50.0637V50.0623ZM35.7982 44.8475C33.5483 46.2817 32.4371 48.0763 31.9721 49.0333L51.6051 49.0018L45.4053 44.8475H35.7982ZM1.99076 25.3044C1.90125 25.3043 1.81345 25.2786 1.73681 25.2301C1.66017 25.1816 1.59758 25.1121 1.55578 25.0291C1.49453 24.9072 0.0683355 22.0245 0.00208803 18.0577C-0.0566597 14.3871 1.09705 9.07789 6.92807 4.64438C9.98421 2.32275 13.0978 0.85452 16.1877 0.276407C16.2514 0.264528 16.3167 0.265922 16.3799 0.280509C16.4431 0.295096 16.5029 0.322591 16.5559 0.361422C16.609 0.400254 16.6542 0.449663 16.689 0.506828C16.7239 0.563993 16.7476 0.627794 16.7589 0.694589C16.7703 0.761384 16.7689 0.829864 16.755 0.89612C16.7411 0.962376 16.7149 1.02511 16.6779 1.08074C16.6409 1.13637 16.5937 1.18381 16.5392 1.22034C16.4847 1.25688 16.4239 1.2818 16.3602 1.29368C13.4178 1.8495 10.4404 3.25087 7.50805 5.47943C3.11572 8.81964 0.920803 13.0316 0.9883 17.9987C1.02737 20.1284 1.46081 22.2299 2.2645 24.1862C13.2466 21.3336 20.2126 16.478 24.1387 12.8848C27.7035 9.6193 29.461 6.7851 29.9659 5.8963C28.4498 4.02169 24.7524 1.13637 19.4601 1.0328C19.3935 1.03473 19.3272 1.02247 19.2653 0.996772C19.2034 0.971071 19.1471 0.93246 19.0998 0.883276C19.0525 0.834092 19.0152 0.775356 18.9901 0.710622C18.9651 0.645888 18.9528 0.576501 18.9541 0.506658C18.9554 0.436815 18.9702 0.367968 18.9975 0.304282C19.0249 0.240595 19.0643 0.183393 19.1133 0.136134C19.1624 0.088876 19.2201 0.0525443 19.2829 0.0293367C19.3457 0.0061292 19.4124 -0.0034719 19.4788 0.00111442C25.4011 0.116475 29.4785 3.5301 30.9509 5.52924C31.0082 5.60713 31.0432 5.70058 31.0516 5.79858C31.06 5.89659 31.0416 5.99507 30.9984 6.08245C30.9297 6.22272 29.2485 9.56162 24.8324 13.6215C20.7775 17.3471 13.5453 22.3955 2.11201 25.2887C2.07236 25.2991 2.03164 25.3044 1.99076 25.3044ZM26.9911 34.7784C26.637 34.7783 26.29 34.6736 25.9901 34.4763C25.6901 34.279 25.4491 33.9971 25.2949 33.6628L23.5262 29.8126C23.4243 29.5912 23.3672 29.3501 23.3583 29.1045C23.3495 28.8588 23.3892 28.6139 23.4748 28.3851C23.5605 28.1563 23.6904 27.9485 23.8562 27.7748C24.0221 27.6011 24.2204 27.4652 24.4387 27.3756L25.5836 26.905C25.8102 26.8118 26.0532 26.7706 26.2963 26.7843C26.5394 26.798 26.7768 26.8662 26.9926 26.9844C27.2083 27.1026 27.3974 27.2679 27.547 27.4693C27.6966 27.6707 27.8033 27.9034 27.8598 28.1517L28.8172 32.3466C28.8841 32.6361 28.8873 32.9377 28.8268 33.2287C28.7662 33.5197 28.6434 33.7924 28.4677 34.0264C28.2919 34.2603 28.0678 34.4493 27.8122 34.5791C27.5566 34.7089 27.2763 34.7762 26.9923 34.7758L26.9911 34.7784ZM26.2048 27.8135C26.115 27.8136 26.0259 27.8314 25.9423 27.8659L24.7974 28.3365C24.7056 28.3744 24.6222 28.4318 24.5525 28.505C24.4828 28.5782 24.4282 28.6657 24.3922 28.7621C24.3562 28.8584 24.3395 28.9615 24.3432 29.0649C24.3469 29.1683 24.3709 29.2698 24.4137 29.363L26.1836 33.2145C26.2798 33.4223 26.4457 33.5856 26.6496 33.6732C26.8535 33.7607 27.081 33.7663 27.2886 33.6889C27.4962 33.6114 27.6692 33.4564 27.7746 33.2535C27.88 33.0506 27.9103 32.814 27.8598 32.5892L26.9023 28.3942C26.8646 28.2301 26.7755 28.084 26.6493 27.9792C26.5231 27.8744 26.3671 27.817 26.2061 27.8161L26.2048 27.8135Z" fill="black"/>
<path id="Vector_11" d="M31.2199 50.0623C31.1424 50.0623 31.066 50.0431 30.9969 50.0062C30.9278 49.9693 30.868 49.9159 30.8224 49.8503C30.7767 49.7846 30.7464 49.7086 30.734 49.6283C30.7217 49.5481 30.7275 49.466 30.7511 49.3885C30.7911 49.2574 31.7811 46.1348 35.4109 43.8827C35.4866 43.8357 35.573 43.8108 35.6609 43.8106H40.9257C41.0444 43.8111 41.1589 43.8566 41.2482 43.9386C41.3374 44.0206 41.3954 44.1336 41.4116 44.2569C41.4277 44.3802 41.4008 44.5055 41.3359 44.6097C41.271 44.7138 41.1724 44.7899 41.0582 44.8239C37.5509 45.8543 35.2809 49.7241 35.2334 49.8054C35.1898 49.8821 35.1279 49.9456 35.0539 49.9897C34.9798 50.0338 34.8961 50.057 34.811 50.0571H31.2186L31.2199 50.0623ZM35.7984 44.8475C33.5585 46.2738 32.4448 48.0737 31.9748 49.0333H34.5435C35.0185 48.2834 36.4547 46.2227 38.6046 44.8515L35.7984 44.8475ZM12.8456 43.8434C12.7741 43.8431 12.7035 43.8266 12.6388 43.7949C12.574 43.7632 12.5166 43.7171 12.4706 43.6598L10.9894 41.8246C10.9154 41.7191 10.8824 41.5882 10.8969 41.4582C10.9115 41.3282 10.9726 41.2088 11.0678 41.1242C11.1631 41.0397 11.2854 40.9962 11.41 41.0025C11.5347 41.0089 11.6524 41.0647 11.7394 41.1586L12.9393 42.6478L15.2517 41.0564C15.3609 40.9876 15.4912 40.9658 15.6154 40.9956C15.7395 41.0255 15.8478 41.1046 15.9175 41.2164C15.9872 41.3282 16.013 41.4639 15.9893 41.5952C15.9656 41.7264 15.8943 41.8429 15.7904 41.9203L13.1105 43.7555C13.0321 43.811 12.9401 43.8414 12.8456 43.8434ZM41.4045 22.4623C41.3372 22.4623 41.2706 22.4477 41.2089 22.4195C41.1472 22.3913 41.0916 22.3501 41.0457 22.2985L39.4508 20.5143C39.3615 20.4144 39.3136 20.2813 39.3178 20.1443C39.3221 20.0074 39.378 19.8778 39.4733 19.7841C39.5686 19.6904 39.6955 19.6403 39.8261 19.6447C39.9566 19.6491 40.0802 19.7078 40.1695 19.8077L41.4895 21.2838L43.8994 19.7212C44.0103 19.6544 44.1416 19.6355 44.2655 19.6685C44.3894 19.7014 44.4963 19.7836 44.5635 19.8976C44.6307 20.0117 44.653 20.1487 44.6256 20.2797C44.5983 20.4107 44.5234 20.5254 44.4169 20.5995L41.667 22.3837C41.5883 22.4354 41.4973 22.4627 41.4045 22.4623ZM52.7015 38.913H52.6865C52.6194 38.9108 52.5533 38.8942 52.4925 38.8642C52.4316 38.8342 52.3773 38.7915 52.3328 38.7387L50.3329 36.362C50.2867 36.3117 50.2507 36.2522 50.2271 36.1869C50.2035 36.1217 50.1928 36.0521 50.1955 35.9823C50.1982 35.9126 50.2144 35.8442 50.2431 35.7812C50.2718 35.7182 50.3123 35.662 50.3622 35.6159C50.4122 35.5698 50.4706 35.5348 50.5338 35.513C50.597 35.4912 50.6638 35.4831 50.7301 35.4891C50.7963 35.4951 50.8608 35.5151 50.9195 35.548C50.9782 35.5809 51.0299 35.6259 51.0716 35.6803L52.7178 37.6467L54.6065 35.6606C54.6994 35.5679 54.8233 35.5168 54.9516 35.5184C55.0799 35.5199 55.2026 35.574 55.2935 35.669C55.3844 35.764 55.4364 35.8924 55.4383 36.027C55.4403 36.1616 55.3921 36.2917 55.3039 36.3895L53.0503 38.7623C53.0044 38.8102 52.9501 38.8482 52.8902 38.874C52.8304 38.8999 52.7663 38.9132 52.7015 38.913Z" fill="black"/>
</g>
</svg>
