<svg width="64" height="64" viewBox="0 0 64 64" fill="none" xmlns="http://www.w3.org/2000/svg">
<g id="Group">
<g id="Group_2">
<path id="Vector" d="M15.5015 15.0875L15.0862 15.5028C14.5924 15.9984 14.0057 16.3916 13.3596 16.6599C12.7135 16.9283 12.0209 17.0664 11.3213 17.0664C10.6217 17.0664 9.92906 16.9283 9.283 16.6599C8.63694 16.3916 8.0502 15.9984 7.55645 15.5028C4.96313 12.9106 6.31677 14.2738 1.68819 9.64521C1.49015 9.44739 1.33304 9.21247 1.22584 8.95389C1.11865 8.6953 1.06348 8.41813 1.06348 8.13821C1.06348 7.85829 1.11865 7.58111 1.22584 7.32253C1.33304 7.06395 1.49015 6.82903 1.68819 6.6312L6.62989 1.68951C6.82771 1.49146 7.06263 1.33435 7.32121 1.22716C7.57979 1.11997 7.85697 1.06479 8.13689 1.06479C8.41681 1.06479 8.69399 1.11997 8.95257 1.22716C9.21115 1.33435 9.44607 1.49146 9.6439 1.68951C14.3492 6.39477 13.052 5.10929 15.5015 7.55777C15.9971 8.05152 16.3903 8.63825 16.6586 9.28432C16.9269 9.93038 17.0651 10.6231 17.0651 11.3226C17.0651 12.0222 16.9269 12.7149 16.6586 13.3609C16.3903 14.007 15.9971 14.5937 15.5015 15.0875Z" fill="#0377BC"/>
<path id="Vector_2" d="M13.5099 13.0852L13.0839 13.5112C12.0964 14.4987 10.7605 15.0588 9.36409 15.0707C7.96763 15.0827 6.62236 14.5456 5.61812 13.5751L1.68819 9.64521C1.49015 9.44739 1.33304 9.21247 1.22584 8.95389C1.11865 8.6953 1.06348 8.41813 1.06348 8.13821C1.06348 7.85829 1.11865 7.58111 1.22584 7.32253C1.33304 7.06395 1.49015 6.82903 1.68819 6.6312L6.62989 1.68951C6.82771 1.49146 7.06263 1.33435 7.32121 1.22716C7.57979 1.11997 7.85697 1.06479 8.13689 1.06479C8.41681 1.06479 8.69399 1.11997 8.95257 1.22716C9.21115 1.33435 9.44607 1.49146 9.6439 1.68951L13.5099 5.55553C14.5082 6.55414 15.069 7.90835 15.069 9.32038C15.069 10.7324 14.5082 12.0866 13.5099 13.0852Z" fill="#02A9F4"/>
<path id="Vector_3" d="M62.3109 57.3688L57.3692 62.3105C57.1714 62.5085 56.9365 62.6656 56.6779 62.7728C56.4193 62.88 56.1421 62.9352 55.8622 62.9352C55.5823 62.9352 55.3051 62.88 55.0465 62.7728C54.7879 62.6656 54.553 62.5085 54.3552 62.3105C52.354 60.3093 53.6097 61.549 48.4976 56.4422C48.0019 55.9485 47.6085 55.3618 47.3401 54.7158C47.0718 54.0697 46.9336 53.377 46.9336 52.6774C46.9336 51.9778 47.0718 51.2851 47.3401 50.639C47.6085 49.9929 48.0019 49.4062 48.4976 48.9125L48.9129 48.4972C49.4068 48.0018 49.9936 47.6088 50.6397 47.3407C51.2857 47.0725 51.9783 46.9345 52.6778 46.9345C53.3773 46.9345 54.0699 47.0725 54.7159 47.3407C55.362 47.6088 55.9487 48.0018 56.4426 48.4972L62.3109 54.3548C62.5089 54.5526 62.6661 54.7875 62.7732 55.0461C62.8804 55.3047 62.9356 55.5819 62.9356 55.8618C62.9356 56.1417 62.8804 56.4189 62.7732 56.6775C62.6661 56.936 62.5089 57.171 62.3109 57.3688Z" fill="#0377BC"/>
<path id="Vector_4" d="M59.8389 55.324L54.8972 60.2657C54.6344 60.5283 54.3069 60.7169 53.9478 60.8122C53.5888 60.9076 53.2108 60.9064 52.8524 60.8088L48.4964 56.4422C48.0002 55.9488 47.6064 55.3622 47.3377 54.7161C47.069 54.07 46.9307 53.3771 46.9307 52.6774C46.9307 51.9776 47.069 51.2848 47.3377 50.6386C47.6064 49.9925 48.0002 49.4059 48.4964 48.9125L48.9118 48.4972C49.6924 47.7143 50.6975 47.1942 51.7874 47.009C52.8773 46.8239 53.9978 46.9829 54.9931 47.4641L59.8389 52.3099C60.0369 52.5078 60.1941 52.7427 60.3013 53.0013C60.4084 53.2599 60.4636 53.537 60.4636 53.817C60.4636 54.0969 60.4084 54.374 60.3013 54.6326C60.1941 54.8912 60.0369 55.1261 59.8389 55.324Z" fill="#02A9F4"/>
<path id="Vector_5" d="M62.8212 5.94958C61.4367 14.7041 57.1766 32.3834 44.5668 44.9613C34.3979 55.1109 19.8444 60.7694 5.81066 62.8323C5.1614 62.9599 4.49054 62.9232 3.85911 62.7254C3.22769 62.5275 2.65576 62.175 2.19535 61.6998C1.73493 61.2245 1.40067 60.6417 1.22295 60.0044C1.04524 59.367 1.02972 58.6953 1.17782 58.0504C3.42714 43.9378 9.23683 29.2182 19.4323 19.0387C29.5947 8.88904 43.9278 3.32537 58.1884 1.16764C58.8379 1.0386 59.5093 1.07436 60.1414 1.27166C60.7736 1.46897 61.3461 1.82152 61.8069 2.29711C62.2677 2.7727 62.6019 3.35617 62.7791 3.9942C62.9563 4.63224 62.9708 5.30451 62.8212 5.94958Z" fill="#F57C00"/>
<path id="Vector_6" d="M59.6266 5.94959C58.2421 14.7041 53.982 32.3834 41.3722 44.9613C31.4803 54.8372 17.3623 60.4946 3.72368 62.6619C2.80855 62.338 2.04401 61.6897 1.57489 60.8397C1.10577 59.9898 0.964658 58.9974 1.17828 58.0504C3.42654 43.9463 9.2341 29.2203 19.4327 19.0387C31.5207 6.96136 48.1138 2.76518 57.0812 1.33805C57.9973 1.66062 58.7629 2.30872 59.2322 3.15903C59.7016 4.00934 59.8419 5.00252 59.6266 5.94959Z" fill="#FF9801"/>
<path id="Vector_7" d="M36.5683 42.7035C34.4051 44.3565 31.9631 45.6082 29.3581 46.3991L17.6748 34.7158C18.458 32.1016 19.6905 29.6437 21.3172 27.4524L36.5683 42.7035Z" fill="#FFEB3A"/>
<path id="Vector_8" d="M29.3586 46.3991C25.795 47.4545 21.8747 47.4034 19.2196 44.7483C18.9693 44.494 18.7446 44.2157 18.5486 43.9176C16.8872 41.5852 16.6529 38.273 17.6753 34.7158L29.3586 46.3991ZM39.7319 39.977C38.7476 40.9641 37.6902 41.8755 36.5688 42.7035L21.3177 27.4524C25.0059 22.3988 31.0381 17.8554 37.08 17.0684C40.1899 16.6637 42.9376 17.356 44.7801 19.2517C49.0508 23.6502 46.793 32.9372 39.7319 39.977Z" fill="#D84315"/>
<g id="Group_3">
<path id="Vector_9" d="M36.5362 39.977C36.0783 40.435 35.6203 40.8716 35.1411 41.2763L21.3171 27.4524C25.0052 22.3988 31.0375 17.8555 37.0794 17.0684C46.3653 18.4029 45.7188 30.8221 36.5362 39.977ZM22.8401 58.4658V58.4764C20.9132 59.1977 18.9592 59.8443 16.9824 60.4148C16.9824 60.3083 17.1582 60.5948 3.75488 46.7612C4.47803 44.3543 5.33644 41.9047 5.75712 40.8503C5.86469 40.8503 5.56329 40.6267 22.8401 58.4658Z" fill="#FF5722"/>
</g>
<g id="Group_4">
<path id="Vector_10" d="M44.2946 11.3173C48.1447 9.75684 52.1405 8.5831 56.2229 7.81337C55.3986 11.9473 54.1737 15.9911 52.5656 19.8875C52.4562 20.1463 52.4536 20.4379 52.5583 20.6987C52.6629 20.9594 52.8664 21.1683 53.1244 21.2797C53.3823 21.3911 53.6738 21.3961 53.9354 21.2935C54.197 21.1909 54.4075 20.9891 54.521 20.7321C56.3888 16.2052 57.76 11.489 58.6106 6.66634C58.6379 6.50062 58.6256 6.33081 58.5746 6.17077C58.5237 6.01073 58.4357 5.865 58.3177 5.74547C58.1998 5.62594 58.0552 5.536 57.8958 5.483C57.7365 5.43 57.5668 5.41544 57.4008 5.4405C52.6233 6.2257 47.9479 7.53948 43.4607 9.35765C43.3296 9.41068 43.2103 9.48932 43.1098 9.58897C43.0094 9.68862 42.9298 9.80728 42.8758 9.93802C42.8217 10.0688 42.7942 10.209 42.7949 10.3505C42.7957 10.4919 42.8246 10.6319 42.88 10.762C42.9354 10.8922 43.0161 11.0101 43.1176 11.1087C43.219 11.2073 43.3391 11.2847 43.4708 11.3364C43.6025 11.3881 43.7432 11.413 43.8847 11.4098C44.0261 11.4065 44.1655 11.375 44.2946 11.3173Z" fill="black"/>
<path id="Vector_11" d="M57.1995 47.7389C56.0947 46.6411 54.6263 45.9856 53.0714 45.8961C51.5165 45.8067 49.9826 46.2894 48.7592 47.2532L46.2447 44.7387C58.208 32.1608 62.433 15.2376 63.8718 6.11467C64.0474 5.30424 64.0197 4.46295 63.791 3.66585C63.5624 2.86875 63.1401 2.14064 62.5616 1.54648C61.9832 0.952321 61.2666 0.510589 60.4759 0.260696C59.6853 0.0108036 58.845 -0.0394772 58.0302 0.11434C48.9168 1.44349 31.8935 5.514 19.2506 17.7447L16.7468 15.2408C17.7106 14.0174 18.1933 12.4835 18.1039 10.9286C18.0144 9.37372 17.3589 7.90533 16.2611 6.80054L10.3961 0.935471C9.79689 0.336489 8.98436 0 8.13714 0C7.28993 0 6.4774 0.336489 5.87823 0.935471L0.935471 5.87823C0.336489 6.4774 0 7.28993 0 8.13714C0 8.98436 0.336489 9.79689 0.935471 10.3961L6.80054 16.2611C7.90061 17.3674 9.37027 18.0287 10.9278 18.1183C12.4853 18.2079 14.0211 17.7195 15.2408 16.7468L17.7553 19.2613C5.79197 31.8392 1.57129 48.7645 0.128185 57.8853C-0.0474113 58.6958 -0.019664 59.537 0.208952 60.3341C0.437567 61.1312 0.859941 61.8594 1.43839 62.4535C2.01684 63.0477 2.73337 63.4894 3.52405 63.7393C4.31473 63.9892 5.15498 64.0395 5.96982 63.8857C15.0832 62.5565 32.1118 58.486 44.7494 46.2553L47.2532 48.7592C46.2894 49.9826 45.8067 51.5165 45.8961 53.0714C45.9856 54.6263 46.6411 56.0947 47.7389 57.1995L53.6039 63.0645C54.2031 63.6635 55.0156 64 55.8629 64C56.7101 64 57.5226 63.6635 58.1218 63.0645L63.0645 58.1218C63.6635 57.5226 64 56.7101 64 55.8629C64 55.0156 63.6635 54.2031 63.0645 53.6039L57.1995 47.7389ZM58.3369 2.22095C58.8213 2.115 59.3249 2.13491 59.7994 2.27876C60.274 2.42262 60.7038 2.68564 61.0479 3.04275C61.3919 3.39985 61.6388 3.83914 61.7649 4.31872C61.8911 4.79831 61.8923 5.30221 61.7684 5.78238C60.3658 14.6402 56.2825 31.0766 44.7387 43.2328L41.336 39.83C48.0989 32.5027 50.0276 23.1294 45.5449 18.5062C44.6482 17.6311 43.5825 16.9479 42.413 16.4981C41.2435 16.0484 39.9947 15.8417 38.7426 15.8905C34.0566 15.8905 28.6675 18.4007 24.1519 22.6502L20.7523 19.2506C32.9585 7.4534 49.4866 3.51282 58.3369 2.22095ZM18.2666 36.8128L27.2543 45.8005C20.8695 46.8624 17.274 42.9899 18.2666 36.8128ZM29.6623 45.1967L18.864 34.3984C19.4931 32.5278 20.3695 30.7498 21.4701 29.1117L34.9224 42.5629C33.2936 43.6702 31.5247 44.5559 29.6623 45.1967ZM36.6627 41.2902L22.7258 27.3544C23.1731 26.7846 23.6609 26.2255 24.1678 25.6738L38.3379 39.8439C37.7937 40.353 37.2335 40.8397 36.6627 41.2902ZM25.6621 24.1561C29.1287 20.9131 34.0693 18.0205 38.8332 18.0205C39.785 17.9838 40.7344 18.1393 41.6248 18.4776C42.5152 18.8159 43.3283 19.3302 44.0156 19.9898C47.7059 23.7961 45.7984 31.8392 39.8322 38.3262L25.6621 24.1561ZM8.30222 14.7552L2.44141 8.88905C2.24175 8.68933 2.12959 8.41848 2.12959 8.13608C2.12959 7.85367 2.24175 7.58283 2.44141 7.38311L7.38417 2.44141C7.58389 2.24175 7.85474 2.12959 8.13714 2.12959C8.41955 2.12959 8.69039 2.24175 8.89011 2.44141L14.7552 8.30648C15.4587 9.01203 15.8926 9.94183 15.9815 10.9342C16.0705 11.9266 15.8087 12.9187 15.2419 13.7381L11.2758 9.76982C11.1775 9.6681 11.06 9.58696 10.9301 9.53115C10.8001 9.47533 10.6604 9.44595 10.519 9.44472C10.3775 9.44349 10.2373 9.47044 10.1064 9.52399C9.97553 9.57754 9.85662 9.65662 9.75662 9.75662C9.65662 9.85662 9.57754 9.97553 9.52399 10.1064C9.47044 10.2373 9.44349 10.3775 9.44472 10.519C9.44595 10.6604 9.47533 10.8001 9.53115 10.9301C9.58696 11.06 9.6681 11.1775 9.76982 11.2758L13.7349 15.2408C12.9159 15.807 11.9245 16.0684 10.9329 15.9797C9.94121 15.8909 9.01196 15.4577 8.30648 14.7552H8.30222ZM22.6598 24.17C21.9206 24.9699 21.2263 25.8101 20.5798 26.6866C20.5265 26.7484 20.4797 26.8144 20.4381 26.8836C18.8334 29.1272 17.5867 31.6062 16.7425 34.2323C16.6575 34.3842 16.6111 34.5546 16.6073 34.7286C15.5902 38.5701 15.9139 42.1582 17.7788 44.6865L14.3207 48.1404L6.99437 40.5873C9.77568 33.2556 13.9402 26.5269 19.2613 20.7672L22.6598 24.17ZM17.3059 59.2091L4.94847 46.4608C5.32141 45.2269 5.7241 44.0021 6.1562 42.7876L20.9461 58.0408C19.7441 58.46 18.5318 58.8489 17.3102 59.207L17.3059 59.2091ZM5.6631 61.779C5.17865 61.885 4.67515 61.8651 4.20058 61.7212C3.72601 61.5774 3.2962 61.3144 2.95212 60.9572C2.60805 60.6001 2.36118 60.1609 2.23504 59.6813C2.10891 59.2017 2.10773 58.6978 2.2316 58.2176C2.73868 55.0488 3.41882 51.9101 4.26899 48.8156L14.9788 59.862C11.9116 60.6746 8.80171 61.3147 5.6631 61.779ZM23.1294 57.2314L15.7968 49.6698L19.2613 46.2127C20.9876 47.5032 23.0996 48.172 25.2542 48.1106C29.9402 48.1106 35.3293 45.6003 39.8449 41.3509L43.2445 44.7504C37.4404 50.2109 30.6022 54.4546 23.1326 57.2314H23.1294ZM61.5554 56.6158L56.6126 61.5586C56.4129 61.7582 56.1421 61.8704 55.8597 61.8704C55.5773 61.8704 55.3064 61.7582 55.1067 61.5586L49.2416 55.6935C48.5381 54.988 48.1042 54.0582 48.0153 53.0658C47.9263 52.0734 48.1881 51.0813 48.7549 50.2619L53.5155 55.0215C53.6138 55.1232 53.7313 55.2043 53.8613 55.2602C53.9912 55.316 54.1309 55.3454 54.2724 55.3466C54.4138 55.3478 54.554 55.3209 54.6849 55.2673C54.8158 55.2138 54.9347 55.1347 55.0347 55.0347C55.1347 54.9347 55.2138 54.8158 55.2673 54.6849C55.3209 54.554 55.3478 54.4138 55.3466 54.2724C55.3454 54.1309 55.316 53.9912 55.2602 53.8613C55.2043 53.7313 55.1232 53.6138 55.0215 53.5155L50.2651 48.7592C51.0836 48.1902 52.0762 47.927 53.0691 48.0158C54.062 48.1046 54.9921 48.5396 55.6967 49.2448L61.5586 55.111C61.7579 55.3106 61.8699 55.5812 61.8699 55.8634C61.8699 56.1455 61.7579 56.4161 61.5586 56.6158H61.5554Z" fill="black"/>
</g>
</g>
</g>
</svg>
