<svg width="64" height="64" viewBox="0 0 64 64" fill="none" xmlns="http://www.w3.org/2000/svg">
<g id="Group">
<path id="Vector" d="M9.21115 50.2005C9.3009 50.1122 9.3889 50.0222 9.4729 49.9282C9.98565 49.3555 10.8879 49.3582 11.3879 49.942C12.4664 51.2007 14.0674 51.9987 15.8548 51.9987C17.6191 51.9987 19.2011 51.2215 20.2788 49.9907C20.7853 49.4125 21.6875 49.4125 22.194 49.9907C23.2715 51.2212 24.8535 51.9987 26.6178 51.9987C28.4055 51.9987 30.0065 51.201 31.0847 49.942C31.5847 49.3582 32.4872 49.3552 32.9997 49.9282C34.0759 51.1307 35.6394 51.8877 37.3804 51.8877C39.1214 51.8877 40.6849 51.1307 41.7611 49.9282C42.2739 49.3555 43.1761 49.3582 43.6761 49.942C44.7546 51.2007 46.3556 51.9987 48.1431 51.9987C49.9073 51.9987 51.4893 51.2215 52.567 49.9907C53.0735 49.4125 53.9758 49.4125 54.4823 49.9907C54.6712 50.2058 54.8755 50.407 55.0935 50.5925L60.9792 37.3495C61.22 36.8077 60.8235 36.1975 60.2305 36.1975H43.7249C43.5987 36.1975 43.4743 36.2267 43.3613 36.2827C43.2482 36.3386 43.1496 36.4199 43.0731 36.5202L39.4114 41.3262C39.3349 41.4265 39.2363 41.5078 39.1233 41.5638C39.0102 41.6198 38.8858 41.6489 38.7597 41.649H12.7269C12.5096 41.649 12.3012 41.5627 12.1476 41.409C11.9939 41.2554 11.9076 41.047 11.9076 40.8297V37.0167C11.9076 36.7995 11.8213 36.5911 11.6677 36.4374C11.514 36.2838 11.3057 36.1975 11.0884 36.1975H5.71768C5.5004 36.1975 5.29203 36.2838 5.13839 36.4374C4.98475 36.5911 4.89844 36.7995 4.89844 37.0167V42.722C4.89844 42.8695 4.93819 43.014 5.01344 43.1407L9.21115 50.2005Z" fill="#DAE6F1"/>
<path id="Vector_2" d="M63.3742 51.1242C63.3742 50.6985 62.8845 50.4672 62.5507 50.7315C61.5142 51.5537 60.2296 52.0004 58.9065 51.9985C57.1423 51.9985 55.5603 51.2212 54.4826 49.9905C53.9761 49.4122 53.0738 49.4122 52.5676 49.9905C51.4901 51.221 49.9081 51.9985 48.1436 51.9985C46.3561 51.9985 44.7549 51.2007 43.6766 49.9417C43.1766 49.358 42.2744 49.355 41.7617 49.9277C40.6854 51.1302 39.1219 51.8872 37.3809 51.8872C35.64 51.8872 34.0765 51.1302 33.0002 49.9277C32.4875 49.355 31.5852 49.3577 31.0852 49.9417C30.0068 51.2005 28.4058 51.9985 26.6183 51.9985C24.854 51.9985 23.2721 51.2212 22.1943 49.9905C21.6878 49.4122 20.7856 49.4122 20.2793 49.9905C19.2018 51.221 17.6199 51.9985 15.8554 51.9985C14.0679 51.9985 12.4667 51.2007 11.3884 49.9417C10.8884 49.358 9.98617 49.355 9.47343 49.9277C8.39719 51.1302 6.8337 51.8872 5.09271 51.8872C3.76966 51.8891 2.48503 51.4425 1.44849 50.6202C1.11475 50.356 0.625 50.5872 0.625 51.013V56.2027C1.70349 57.4627 3.30423 58.2622 5.09271 58.2622C6.8337 58.2622 8.39719 57.5052 9.47343 56.3027C9.98617 55.73 10.8884 55.7327 11.3884 56.3167C12.4669 57.5755 14.0679 58.3735 15.8554 58.3735C17.6196 58.3735 19.2018 57.5962 20.2793 56.3655C20.7858 55.7872 21.6881 55.7872 22.1943 56.3655C23.2718 57.596 24.8538 58.3735 26.6183 58.3735C28.4058 58.3735 30.007 57.5757 31.0852 56.3167C31.5852 55.733 32.4875 55.73 33.0002 56.3027C34.0765 57.5052 35.64 58.2622 37.3809 58.2622C39.1219 58.2622 40.6854 57.5052 41.7617 56.3027C42.2744 55.73 43.1766 55.733 43.6766 56.3167C44.7551 57.5755 46.3561 58.3735 48.1436 58.3735C49.9078 58.3735 51.4901 57.5962 52.5676 56.3655C53.0741 55.7872 53.9763 55.7872 54.4826 56.3655C55.56 57.596 57.142 58.3735 58.9065 58.3735C60.695 58.3735 62.2957 57.5737 63.3742 56.314V51.1242Z" fill="#9BE5F9"/>
<path id="Vector_3" d="M58.9065 58.3737C57.1423 58.3737 55.5603 57.5964 54.4825 56.3657C53.9761 55.7874 53.0738 55.7874 52.5676 56.3657C51.4901 57.5962 49.9081 58.3737 48.1436 58.3737C46.3561 58.3737 44.7549 57.5759 43.6766 56.3169C43.1766 55.7332 42.2744 55.7302 41.7617 56.3029C40.6854 57.5054 39.1219 58.2624 37.3809 58.2624C35.64 58.2624 34.0765 57.5054 33.0002 56.3029C32.4875 55.7302 31.5852 55.7332 31.0852 56.3169C30.0068 57.5757 28.4058 58.3737 26.6183 58.3737C24.854 58.3737 23.2721 57.5964 22.1943 56.3657C21.6878 55.7874 20.7856 55.7874 20.2793 56.3657C19.2018 57.5962 17.6199 58.3737 15.8554 58.3737C14.0676 58.3737 12.4667 57.5759 11.3884 56.3169C10.8884 55.7332 9.98617 55.7302 9.47343 56.3029C8.39719 57.5054 6.8337 58.2624 5.09271 58.2624C3.30423 58.2624 1.70349 57.4627 0.625 56.2029V62.4219C0.624967 62.5471 0.649588 62.671 0.697456 62.7866C0.745324 62.9022 0.815502 63.0072 0.903978 63.0957C0.992455 63.1842 1.0975 63.2544 1.2131 63.3022C1.32871 63.3501 1.45262 63.3747 1.57774 63.3747H62.4217C62.5469 63.3747 62.6708 63.3501 62.7864 63.3022C62.902 63.2544 63.007 63.1842 63.0955 63.0957C63.184 63.0072 63.2542 62.9022 63.302 62.7866C63.3499 62.671 63.3745 62.5471 63.3745 62.4219V56.3139C62.2957 57.5739 60.695 58.3737 58.9065 58.3737Z" fill="#70D6F9"/>
<path id="Vector_4" d="M39.6972 0.634545C33.4078 0.877294 28.2361 5.91229 27.8378 12.1938C27.4736 17.9408 31.0348 22.9118 36.0985 24.6835C36.424 24.798 36.7237 24.9758 36.9803 25.2065C37.2369 25.4373 37.4454 25.7164 37.5938 26.028L38.7812 28.512C39.3462 29.6938 41.0282 29.6938 41.5932 28.512L42.7805 26.0283C43.0797 25.402 43.6127 24.915 44.268 24.6863C49.0974 23.0003 52.5621 18.4048 52.5621 13C52.5621 6.00279 46.7549 0.362045 39.6972 0.634545ZM11.089 36.1975C11.3063 36.1975 11.5146 36.2838 11.6683 36.4374C11.8219 36.5911 11.9082 36.7995 11.9082 37.0167V40.8297C11.9082 41.047 11.9945 41.2554 12.1482 41.409C12.3018 41.5627 12.5102 41.649 12.7275 41.649H38.7602C38.8864 41.6489 39.0108 41.6198 39.1239 41.5638C39.2369 41.5078 39.3355 41.4265 39.412 41.3262L43.0737 36.5202C43.1502 36.4199 43.2487 36.3385 43.3618 36.2826C43.4748 36.2266 43.5993 36.1975 43.7255 36.1975H52.7421L51.4501 33.3442C51.3531 33.1299 51.1963 32.948 50.9985 32.8205C50.8008 32.6929 50.5705 32.625 50.3351 32.625H9.34899C9.02437 32.625 8.71304 32.754 8.4835 32.9835C8.25396 33.213 8.125 33.5244 8.125 33.849V36.1975H11.089Z" fill="#5290DB"/>
<path id="Vector_5" d="M45.328 28.375H41.6587L41.5932 28.512C41.0282 29.6937 39.3463 29.6937 38.7813 28.512L38.7158 28.375H12.922C12.4454 28.375 11.9883 28.5643 11.6513 28.9013C11.3143 29.2383 11.125 29.6954 11.125 30.172V32.6252H47.1247V30.172C47.1247 29.6954 46.9354 29.2384 46.5985 28.9014C46.2615 28.5644 45.8045 28.3751 45.328 28.375Z" fill="#FC657E"/>
<path id="Vector_6" d="M29.1249 28.375V24.3668C29.1249 24.1037 29.0204 23.8515 28.8344 23.6655C28.6484 23.4795 28.3962 23.375 28.1331 23.375H15.6167C15.3537 23.375 15.1015 23.4795 14.9155 23.6655C14.7295 23.8515 14.625 24.1037 14.625 24.3668V28.375H29.1249Z" fill="#DAE6F1"/>
<path id="Vector_7" d="M60.2308 36.1975H43.7252C43.5991 36.1975 43.4747 36.2267 43.3616 36.2827C43.2486 36.3386 43.15 36.4199 43.0735 36.5202L40.708 39.625H59.9681L60.9793 37.3495C61.2203 36.8077 60.8238 36.1975 60.2308 36.1975Z" fill="#6CADEF"/>
<path id="Vector_8" d="M36.7926 10.974C38.0626 10.974 39.0921 9.94451 39.0921 8.67453C39.0921 7.40456 38.0626 6.37504 36.7926 6.37504C35.5227 6.37504 34.4932 7.40456 34.4932 8.67453C34.4932 9.94451 35.5227 10.974 36.7926 10.974Z" fill="#F9D0B4"/>
<path id="Vector_9" d="M43.5827 10.974C44.8527 10.974 45.8822 9.94451 45.8822 8.67453C45.8822 7.40456 44.8527 6.37504 43.5827 6.37504C42.3127 6.37504 41.2832 7.40456 41.2832 8.67453C41.2832 9.94451 42.3127 10.974 43.5827 10.974Z" fill="#F9D0B4"/>
<path id="Vector_10" d="M30.8797 13.0723C31.7971 13.0723 32.5407 12.3286 32.5407 11.4113C32.5407 10.4939 31.7971 9.75029 30.8797 9.75029C29.9624 9.75029 29.2188 10.4939 29.2188 11.4113C29.2188 12.3286 29.9624 13.0723 30.8797 13.0723Z" fill="#F9D0B4"/>
<path id="Vector_11" d="M49.495 13.0723C50.4123 13.0723 51.156 12.3286 51.156 11.4113C51.156 10.4939 50.4123 9.75029 49.495 9.75029C48.5776 9.75029 47.834 10.4939 47.834 11.4113C47.834 12.3286 48.5776 13.0723 49.495 13.0723Z" fill="#F9D0B4"/>
<path id="Vector_12" d="M51.9282 16.7008V15.937C51.9282 14.6413 50.9505 13.5098 49.6572 13.426C48.2402 13.3343 47.0625 14.4565 47.0625 15.8535V17.2023H51.4265C51.4923 17.2023 51.5576 17.1894 51.6185 17.1642C51.6793 17.139 51.7346 17.1021 51.7812 17.0555C51.8278 17.0089 51.8648 16.9536 51.89 16.8928C51.9152 16.8319 51.9282 16.7667 51.9282 16.7008Z" fill="#F5C84C"/>
<path id="Vector_13" d="M46.9498 17.2025V14.825C46.9498 12.9648 45.4418 11.457 43.5818 11.457C41.7219 11.457 40.2139 12.965 40.2139 14.825V17.2025H46.9498Z" fill="#70D6F9"/>
<path id="Vector_14" d="M40.1607 17.2025V14.825C40.1607 12.9648 38.6528 11.457 36.7928 11.457C34.9325 11.457 33.4248 12.965 33.4248 14.825V17.2025H40.1607Z" fill="#A57453"/>
<path id="Vector_15" d="M33.3123 17.2025V15.937C33.3123 14.6413 32.3346 13.5098 31.0413 13.426C29.6244 13.3343 28.4466 14.4565 28.4466 15.8535V16.7005C28.4466 16.9775 28.6714 17.2023 28.9484 17.2023L33.3123 17.2025ZM6.50329 27.8C5.7283 27.65 5.10331 27.05 4.95331 26.275C4.95331 26.25 4.87831 26.25 4.87831 26.275C4.72831 27.05 4.10331 27.65 3.32832 27.8C3.30332 27.8 3.30332 27.85 3.32832 27.875C4.10331 28.025 4.72831 28.625 4.87831 29.4C4.87831 29.425 4.95331 29.425 4.95331 29.4C5.10331 28.625 5.7283 28.025 6.50329 27.875C6.52829 27.85 6.52829 27.8 6.50329 27.8Z" fill="#87D147"/>
<path id="Vector_16" d="M15.5024 8.87504H16.0774V9.45004C16.0774 9.90004 16.4274 10.25 16.8774 10.25C17.3024 10.25 17.6774 9.90004 17.6774 9.47504V8.87504H18.2524C18.7024 8.87504 19.0524 8.52504 19.0524 8.07504C19.0524 7.65004 18.7024 7.27504 18.2774 7.27504H17.6774V6.70004C17.6774 6.25004 17.3274 5.90005 16.8774 5.90005C16.4524 5.90005 16.0774 6.25004 16.0774 6.67504V7.27504H15.5024C15.0524 7.27504 14.7024 7.62504 14.7024 8.07504C14.6774 8.50004 15.0274 8.87504 15.5024 8.87504C15.4774 8.87504 15.4774 8.87504 15.5024 8.87504Z" fill="#70D6F9"/>
<path id="Vector_17" d="M21.6029 1.70005C22.0724 1.70005 22.4529 1.31949 22.4529 0.850047C22.4529 0.380606 22.0724 4.86374e-05 21.6029 4.86374e-05C21.1335 4.86374e-05 20.7529 0.380606 20.7529 0.850047C20.7529 1.31949 21.1335 1.70005 21.6029 1.70005Z" fill="#F5C84C"/>
<path id="Vector_18" d="M61.1019 31.45C61.5714 31.45 61.9519 31.0694 61.9519 30.6C61.9519 30.1306 61.5714 29.75 61.1019 29.75C60.6325 29.75 60.252 30.1306 60.252 30.6C60.252 31.0694 60.6325 31.45 61.1019 31.45Z" fill="#FC657E"/>
<path id="Vector_19" d="M53.9525 23.3C55.0775 23.1 55.9525 22.225 56.1775 21.125C56.1775 21.075 56.2775 21.075 56.2775 21.125C56.5025 22.225 57.3775 23.1 58.5025 23.3C58.5525 23.3 58.5525 23.375 58.5025 23.4C57.3775 23.6 56.5025 24.475 56.2775 25.575C56.2775 25.625 56.1775 25.625 56.1775 25.575C55.9525 24.475 55.0775 23.6 53.9525 23.4C53.9025 23.375 53.9025 23.3 53.9525 23.3Z" fill="#F5C84C"/>
<path id="Vector_20" d="M55.1785 51.0265C55.0744 51.0265 54.9719 51.0004 54.8804 50.9507C54.7888 50.901 54.7112 50.8293 54.6545 50.7419C54.5977 50.6546 54.5637 50.5545 54.5555 50.4507C54.5473 50.3468 54.5652 50.2426 54.6075 50.1475L60.4082 37.0955C60.4452 37.0115 60.415 36.9437 60.3935 36.9107C60.372 36.8777 60.3222 36.8222 60.2305 36.8222H43.7251C43.6952 36.8224 43.6657 36.8294 43.639 36.8427C43.6122 36.856 43.5888 36.8752 43.5706 36.899L39.9089 41.705C39.7737 41.8814 39.5998 42.0244 39.4007 42.123C39.2015 42.2217 38.9824 42.2733 38.7602 42.274H12.7271C12.3442 42.2736 11.9771 42.1213 11.7063 41.8505C11.4356 41.5798 11.2833 41.2127 11.2829 40.8297V37.0167C11.2828 36.9652 11.2623 36.9159 11.2259 36.8795C11.1895 36.843 11.1401 36.8226 11.0886 36.8225H5.71793C5.66643 36.8226 5.61706 36.843 5.58064 36.8795C5.54423 36.9159 5.52374 36.9652 5.52368 37.0167V42.722C5.52368 42.7567 5.53318 42.791 5.55093 42.821L9.68664 49.777C9.72961 49.8475 9.75816 49.9259 9.77064 50.0076C9.78312 50.0893 9.77928 50.1726 9.75935 50.2528C9.73942 50.333 9.70379 50.4084 9.65453 50.4747C9.60526 50.541 9.54334 50.5969 9.47233 50.6392C9.40132 50.6814 9.32265 50.7091 9.24086 50.7208C9.15906 50.7324 9.07577 50.7277 8.9958 50.707C8.91584 50.6862 8.84078 50.6498 8.77497 50.5999C8.70916 50.5499 8.6539 50.4874 8.6124 50.416L4.47669 43.4602C4.34377 43.2369 4.27356 42.9819 4.27344 42.722V37.0167C4.27383 36.6338 4.42612 36.2667 4.69688 35.9959C4.96765 35.7252 5.33476 35.5729 5.71768 35.5725H11.0881C11.471 35.5729 11.8382 35.7252 12.1089 35.9959C12.3797 36.2667 12.532 36.6338 12.5324 37.0167V40.8297C12.5324 40.937 12.6196 41.024 12.7266 41.024H38.7597C38.7896 41.0239 38.8191 41.0169 38.8458 41.0036C38.8726 40.9903 38.896 40.971 38.9142 40.9472L42.5759 36.1412C42.7111 35.9649 42.8849 35.8218 43.0841 35.7232C43.2832 35.6245 43.5024 35.5729 43.7246 35.5722H60.23C60.4708 35.5718 60.7079 35.6318 60.9195 35.7466C61.1312 35.8615 61.3106 36.0276 61.4415 36.2297C61.5729 36.4314 61.6517 36.6627 61.6706 36.9027C61.6896 37.1426 61.6481 37.3835 61.55 37.6032L55.7493 50.655C55.7004 50.7656 55.6204 50.8596 55.5191 50.9255C55.4178 50.9915 55.2994 51.0266 55.1785 51.0265Z" fill="black"/>
<path id="Vector_21" d="M39.6432 36.25H15.4134C15.2476 36.25 15.0886 36.1841 14.9714 36.0669C14.8542 35.9497 14.7884 35.7907 14.7884 35.625C14.7884 35.4592 14.8542 35.3003 14.9714 35.183C15.0886 35.0658 15.2476 35 15.4134 35H39.6432C39.8089 35 39.9679 35.0658 40.0851 35.183C40.2023 35.3003 40.2681 35.4592 40.2681 35.625C40.2681 35.7907 40.2023 35.9497 40.0851 36.0669C39.9679 36.1841 39.8089 36.25 39.6432 36.25ZM37.8932 39H15.4134C15.2476 39 15.0886 38.9341 14.9714 38.8169C14.8542 38.6997 14.7884 38.5407 14.7884 38.375C14.7884 38.2092 14.8542 38.0503 14.9714 37.933C15.0886 37.8158 15.2476 37.75 15.4134 37.75H37.8932C38.0589 37.75 38.2179 37.8158 38.3351 37.933C38.4523 38.0503 38.5182 38.2092 38.5182 38.375C38.5182 38.5407 38.4523 38.6997 38.3351 38.8169C38.2179 38.9341 38.0589 39 37.8932 39ZM14.6256 46.3332C14.4598 46.3332 14.3009 46.2674 14.1837 46.1502C14.0665 46.033 14.0006 45.874 14.0006 45.7082V44.9582C14.0006 44.7925 14.0665 44.6335 14.1837 44.5163C14.3009 44.3991 14.4598 44.3332 14.6256 44.3332C14.7914 44.3332 14.9503 44.3991 15.0675 44.5163C15.1848 44.6335 15.2506 44.7925 15.2506 44.9582V45.7082C15.2506 45.874 15.1848 46.033 15.0675 46.1502C14.9503 46.2674 14.7914 46.3332 14.6256 46.3332ZM17.2863 46.3332C17.1206 46.3332 16.9616 46.2674 16.8444 46.1502C16.7272 46.033 16.6613 45.874 16.6613 45.7082V44.9582C16.6613 44.7925 16.7272 44.6335 16.8444 44.5163C16.9616 44.3991 17.1206 44.3332 17.2863 44.3332C17.4521 44.3332 17.6111 44.3991 17.7283 44.5163C17.8455 44.6335 17.9113 44.7925 17.9113 44.9582V45.7082C17.9113 45.874 17.8455 46.033 17.7283 46.1502C17.6111 46.2674 17.4521 46.3332 17.2863 46.3332ZM19.9471 46.3332C19.7813 46.3332 19.6223 46.2674 19.5051 46.1502C19.3879 46.033 19.3221 45.874 19.3221 45.7082V44.9582C19.3221 44.7925 19.3879 44.6335 19.5051 44.5163C19.6223 44.3991 19.7813 44.3332 19.9471 44.3332C20.1128 44.3332 20.2718 44.3991 20.389 44.5163C20.5062 44.6335 20.5721 44.7925 20.5721 44.9582V45.7082C20.5721 45.874 20.5062 46.033 20.389 46.1502C20.2718 46.2674 20.1128 46.3332 19.9471 46.3332ZM22.6078 46.3332C22.442 46.3332 22.2831 46.2674 22.1659 46.1502C22.0486 46.033 21.9828 45.874 21.9828 45.7082V44.9582C21.9828 44.7925 22.0486 44.6335 22.1659 44.5163C22.2831 44.3991 22.442 44.3332 22.6078 44.3332C22.7736 44.3332 22.9325 44.3991 23.0497 44.5163C23.1669 44.6335 23.2328 44.7925 23.2328 44.9582V45.7082C23.2328 45.874 23.1669 46.033 23.0497 46.1502C22.9325 46.2674 22.7736 46.3332 22.6078 46.3332ZM25.2683 46.3332C25.1025 46.3332 24.9435 46.2674 24.8263 46.1502C24.7091 46.033 24.6433 45.874 24.6433 45.7082V44.9582C24.6433 44.7925 24.7091 44.6335 24.8263 44.5163C24.9435 44.3991 25.1025 44.3332 25.2683 44.3332C25.434 44.3332 25.593 44.3991 25.7102 44.5163C25.8274 44.6335 25.8933 44.7925 25.8933 44.9582V45.7082C25.8933 45.874 25.8274 46.033 25.7102 46.1502C25.593 46.2674 25.434 46.3332 25.2683 46.3332ZM27.929 46.3332C27.7632 46.3332 27.6043 46.2674 27.4871 46.1502C27.3699 46.033 27.304 45.874 27.304 45.7082V44.9582C27.304 44.7925 27.3699 44.6335 27.4871 44.5163C27.6043 44.3991 27.7632 44.3332 27.929 44.3332C28.0948 44.3332 28.2537 44.3991 28.3709 44.5163C28.4881 44.6335 28.554 44.7925 28.554 44.9582V45.7082C28.554 45.874 28.4881 46.033 28.3709 46.1502C28.2537 46.2674 28.0948 46.3332 27.929 46.3332ZM30.5897 46.3332C30.424 46.3332 30.265 46.2674 30.1478 46.1502C30.0306 46.033 29.9647 45.874 29.9647 45.7082V44.9582C29.9647 44.7925 30.0306 44.6335 30.1478 44.5163C30.265 44.3991 30.424 44.3332 30.5897 44.3332C30.7555 44.3332 30.9145 44.3991 31.0317 44.5163C31.1489 44.6335 31.2147 44.7925 31.2147 44.9582V45.7082C31.2147 45.874 31.1489 46.033 31.0317 46.1502C30.9145 46.2674 30.7555 46.3332 30.5897 46.3332ZM35.9112 46.3332C35.7454 46.3332 35.5865 46.2674 35.4692 46.1502C35.352 46.033 35.2862 45.874 35.2862 45.7082V44.9582C35.2862 44.7925 35.352 44.6335 35.4692 44.5163C35.5865 44.3991 35.7454 44.3332 35.9112 44.3332C36.0769 44.3332 36.2359 44.3991 36.3531 44.5163C36.4703 44.6335 36.5362 44.7925 36.5362 44.9582V45.7082C36.5362 45.874 36.4703 46.033 36.3531 46.1502C36.2359 46.2674 36.0769 46.3332 35.9112 46.3332ZM33.2505 46.3332C33.0847 46.3332 32.9257 46.2674 32.8085 46.1502C32.6913 46.033 32.6255 45.874 32.6255 45.7082V44.9582C32.6255 44.7925 32.6913 44.6335 32.8085 44.5163C32.9257 44.3991 33.0847 44.3332 33.2505 44.3332C33.4162 44.3332 33.5752 44.3991 33.6924 44.5163C33.8096 44.6335 33.8754 44.7925 33.8754 44.9582V45.7082C33.8754 45.874 33.8096 46.033 33.6924 46.1502C33.5752 46.2674 33.4162 46.3332 33.2505 46.3332ZM46.5538 46.3332C46.3881 46.3332 46.2291 46.2674 46.1119 46.1502C45.9947 46.033 45.9289 45.874 45.9289 45.7082V44.9582C45.9289 44.7925 45.9947 44.6335 46.1119 44.5163C46.2291 44.3991 46.3881 44.3332 46.5538 44.3332C46.7196 44.3332 46.8786 44.3991 46.9958 44.5163C47.113 44.6335 47.1788 44.7925 47.1788 44.9582V45.7082C47.1788 45.874 47.113 46.033 46.9958 46.1502C46.8786 46.2674 46.7196 46.3332 46.5538 46.3332ZM49.2146 46.3332C49.0488 46.3332 48.8898 46.2674 48.7726 46.1502C48.6554 46.033 48.5896 45.874 48.5896 45.7082V44.9582C48.5896 44.7925 48.6554 44.6335 48.7726 44.5163C48.8898 44.3991 49.0488 44.3332 49.2146 44.3332C49.3803 44.3332 49.5393 44.3991 49.6565 44.5163C49.7737 44.6335 49.8396 44.7925 49.8396 44.9582V45.7082C49.8396 45.874 49.7737 46.033 49.6565 46.1502C49.5393 46.2674 49.3803 46.3332 49.2146 46.3332ZM51.8753 46.3332C51.7095 46.3332 51.5506 46.2674 51.4334 46.1502C51.3162 46.033 51.2503 45.874 51.2503 45.7082V44.9582C51.2503 44.7925 51.3162 44.6335 51.4334 44.5163C51.5506 44.3991 51.7095 44.3332 51.8753 44.3332C52.0411 44.3332 52.2 44.3991 52.3172 44.5163C52.4344 44.6335 52.5003 44.7925 52.5003 44.9582V45.7082C52.5003 45.874 52.4344 46.033 52.3172 46.1502C52.2 46.2674 52.0411 46.3332 51.8753 46.3332ZM63.3752 56.939C63.2094 56.939 63.0505 56.8731 62.9333 56.7559C62.8161 56.6387 62.7502 56.4797 62.7502 56.314V51.3662C61.6305 52.1897 60.307 52.6237 58.9075 52.6237C57.9806 52.6235 57.0644 52.4253 56.2204 52.0422C55.3763 51.6591 54.6239 51.1 54.0135 50.4025C53.7645 50.118 53.288 50.118 53.039 50.4025C52.4286 51.1 51.6761 51.659 50.832 52.0421C49.9879 52.4251 49.0718 52.6235 48.1448 52.6237C47.2057 52.624 46.2776 52.4208 45.4245 52.028C44.5715 51.6353 43.8136 51.0624 43.2031 50.3487C43.1442 50.2793 43.0709 50.2235 42.9883 50.1851C42.9056 50.1467 42.8157 50.1267 42.7246 50.1265C42.6312 50.1261 42.5387 50.1454 42.4532 50.1831C42.3678 50.2208 42.2911 50.276 42.2284 50.3452C41.6181 51.0267 40.8711 51.5719 40.0361 51.9454C39.2011 52.3189 38.2967 52.5123 37.3819 52.513C36.4672 52.5122 35.5628 52.3188 34.7278 51.9453C33.8927 51.5718 33.1458 51.0266 32.5355 50.3452C32.4726 50.2763 32.396 50.2212 32.3105 50.1836C32.2251 50.1459 32.1328 50.1266 32.0395 50.1267C31.852 50.1287 31.682 50.2077 31.561 50.349C30.9505 51.0627 30.1927 51.6357 29.3396 52.0285C28.4865 52.4212 27.5584 52.6245 26.6193 52.6242C25.6923 52.624 24.7761 52.4257 23.932 52.0427C23.088 51.6596 22.3355 51.1005 21.725 50.403C21.4761 50.1185 20.9996 50.1185 20.7506 50.403C20.1401 51.1005 19.3877 51.6595 18.5437 52.0426C17.6996 52.4257 16.7835 52.624 15.8566 52.6242C14.9175 52.6245 13.9894 52.4213 13.1363 52.0285C12.2832 51.6358 11.5254 51.0629 10.9149 50.3492C10.8559 50.2798 10.7826 50.2239 10.6999 50.1856C10.6173 50.1472 10.5273 50.1272 10.4361 50.127H10.4291C10.2426 50.127 10.0649 50.2062 9.94015 50.3457C9.32984 51.0271 8.58285 51.5723 7.74781 51.9458C6.91278 52.3193 6.00844 52.5127 5.09369 52.5135C3.6942 52.5135 2.37071 52.0795 1.25097 51.256V56.2037C1.25097 56.3695 1.18512 56.5284 1.06791 56.6456C0.9507 56.7629 0.79173 56.8287 0.625971 56.8287C0.460212 56.8287 0.301243 56.7629 0.184033 56.6456C0.066824 56.5284 0.000976563 56.3695 0.000976562 56.2037V51.014C0.000976562 50.577 0.244725 50.1877 0.637221 49.998C0.829388 49.9043 1.04421 49.8671 1.2567 49.8907C1.46918 49.9143 1.67058 49.9978 1.83746 50.1315C2.77295 50.872 3.89894 51.2635 5.09369 51.2635C5.83268 51.2628 6.56326 51.1065 7.23783 50.8047C7.91241 50.5029 8.51586 50.0625 9.0089 49.512C9.18768 49.3122 9.40657 49.1524 9.65129 49.043C9.89602 48.9336 10.1611 48.877 10.4291 48.877H10.4499C10.719 48.8796 10.9844 48.9398 11.2283 49.0535C11.4722 49.1672 11.689 49.3317 11.8641 49.536C12.3573 50.1126 12.9696 50.5755 13.6588 50.8929C14.348 51.2102 15.0978 51.3744 15.8566 51.3742C17.3706 51.3742 18.8116 50.72 19.8101 49.5795C20.1701 49.1682 20.6903 48.9325 21.2378 48.9325C21.7853 48.9325 22.3055 49.1682 22.6655 49.5795C23.1587 50.143 23.7666 50.5946 24.4484 50.9042C25.1303 51.2137 25.8704 51.3739 26.6193 51.3742C27.378 51.3744 28.1278 51.2101 28.817 50.8928C29.5062 50.5755 30.1185 50.1126 30.6117 49.536C30.7869 49.3317 31.0036 49.1673 31.2475 49.0537C31.4914 48.94 31.7567 48.8798 32.0257 48.877H32.0467C32.5885 48.877 33.105 49.1075 33.4669 49.512C34.4632 50.6252 35.8899 51.2635 37.3819 51.2635C38.8739 51.2635 40.3009 50.6252 41.2969 49.5122C41.6636 49.1025 42.1841 48.8632 42.7384 48.8772C43.0074 48.88 43.2727 48.9402 43.5166 49.0539C43.7605 49.1675 43.9772 49.332 44.1524 49.5362C44.6456 50.1128 45.2579 50.5757 45.9471 50.893C46.6363 51.2104 47.3861 51.3746 48.1448 51.3745C49.6588 51.3745 51.0998 50.7202 52.0985 49.5797C52.4585 49.1685 52.9788 48.9327 53.5263 48.9327C54.0738 48.9327 54.594 49.1685 54.954 49.5797C55.4471 50.1432 56.0549 50.5949 56.7368 50.9044C57.4186 51.2139 58.1587 51.3742 58.9075 51.3745C60.1022 51.3745 61.2282 50.983 62.1637 50.2425C62.3305 50.1087 62.5319 50.0251 62.7445 50.0015C62.957 49.9778 63.1718 50.0151 63.364 50.109C63.5554 50.2006 63.7168 50.3448 63.8294 50.5247C63.9421 50.7046 64.0013 50.9127 64.0002 51.125V56.3147C64.0001 56.4804 63.9342 56.6392 63.817 56.7562C63.6998 56.8733 63.5409 56.939 63.3752 56.939Z" fill="black"/>
<path id="Vector_22" d="M62.4217 64H1.57774C1.15944 63.9995 0.758403 63.8332 0.46262 63.5374C0.166837 63.2416 0.000463268 62.8406 7.11577e-08 62.4223V56.2033C-6.08915e-05 56.0755 0.0390508 55.9507 0.112065 55.8459C0.185078 55.741 0.288485 55.661 0.40835 55.6167C0.528216 55.5724 0.658779 55.5659 0.782445 55.5981C0.906112 55.6303 1.01694 55.6996 1.09999 55.7968C1.59291 56.374 2.20513 56.8376 2.89447 57.1555C3.58381 57.4733 4.33386 57.638 5.09296 57.638C5.83196 57.6373 6.56253 57.481 7.2371 57.1792C7.91168 56.8775 8.51513 56.437 9.00818 55.8865C9.1888 55.6836 9.41093 55.5219 9.65951 55.4124C9.90808 55.3029 10.1773 55.2481 10.4489 55.2518C10.718 55.2545 10.9834 55.3146 11.2274 55.4282C11.4713 55.5419 11.6882 55.7063 11.8634 55.9105C12.3566 56.4872 12.9688 56.9502 13.658 57.2675C14.3473 57.5849 15.0971 57.7492 15.8559 57.749C17.3699 57.749 18.8108 57.0948 19.8093 55.9543C20.1693 55.543 20.6896 55.3073 21.2371 55.3073C21.7846 55.3073 22.3048 55.543 22.6648 55.9543C23.158 56.5178 23.7658 56.9694 24.4477 57.2789C25.1296 57.5885 25.8697 57.7487 26.6185 57.749C27.3773 57.7492 28.1271 57.5849 28.8163 57.2676C29.5055 56.9502 30.1178 56.4874 30.611 55.9108C30.7862 55.7065 31.003 55.5421 31.2469 55.4284C31.4908 55.3148 31.7562 55.2546 32.0252 55.2518C32.2967 55.2492 32.5657 55.3046 32.8141 55.414C33.0626 55.5235 33.2849 55.6847 33.4662 55.8868C33.9592 56.4373 34.5626 56.8777 35.2371 57.1795C35.9117 57.4812 36.6422 57.6374 37.3812 57.638C38.1202 57.6375 38.8507 57.4812 39.5253 57.1795C40.1998 56.8778 40.8032 56.4373 41.2962 55.8868C41.6629 55.4773 42.1834 55.2408 42.7376 55.2518C43.0067 55.2545 43.272 55.3147 43.5159 55.4284C43.7598 55.542 43.9765 55.7065 44.1516 55.9108C44.6448 56.4874 45.2571 56.9503 45.9463 57.2677C46.6355 57.585 47.3853 57.7492 48.1441 57.749C49.6581 57.749 51.0991 57.0948 52.0978 55.9543C52.4578 55.543 52.9781 55.3073 53.5256 55.3073C54.0731 55.3073 54.5933 55.543 54.9533 55.9543C55.4496 56.5219 56.0622 56.976 56.7497 57.2857C57.4371 57.5953 58.1832 57.7534 58.9371 57.7489C59.6911 57.7445 60.4353 57.5778 61.119 57.2601C61.8028 56.9424 62.4101 56.4812 62.8997 55.9078C62.9828 55.8106 63.0936 55.7413 63.2173 55.7091C63.3409 55.6769 63.4715 55.6834 63.5914 55.7277C63.7112 55.772 63.8146 55.852 63.8877 55.9569C63.9607 56.0617 63.9998 56.1865 63.9997 56.3143V62.4225C63.9991 62.8408 63.8326 63.2417 63.5368 63.5374C63.241 63.8331 62.84 63.9995 62.4217 64ZM1.24999 57.63V62.4223C1.24999 62.603 1.39699 62.75 1.57774 62.75H62.422C62.6027 62.75 62.7497 62.603 62.7497 62.4223V57.7408C61.6354 58.5585 60.2892 58.9992 58.907 58.9988C57.9801 58.9986 57.0639 58.8003 56.2199 58.4172C55.3759 58.0341 54.6234 57.4751 54.0131 56.7775C53.7641 56.493 53.2876 56.493 53.0386 56.7775C52.4281 57.475 51.6756 58.034 50.8315 58.4171C49.9875 58.8002 49.0713 58.9985 48.1443 58.9988C47.2052 58.999 46.2771 58.7958 45.4241 58.4031C44.571 58.0104 43.8131 57.4374 43.2026 56.7238C43.1437 56.6543 43.0704 56.5985 42.9878 56.5602C42.9052 56.5218 42.8152 56.5018 42.7241 56.5015C42.5394 56.503 42.3541 56.5793 42.2279 56.7203C41.6176 57.4017 40.8707 57.947 40.0356 58.3205C39.2006 58.694 38.2962 58.8874 37.3814 58.888C36.4667 58.8873 35.5623 58.6939 34.7273 58.3204C33.8923 57.9469 33.1453 57.4017 32.535 56.7203C32.4735 56.6515 32.3981 56.5965 32.3139 56.5588C32.2297 56.5211 32.1385 56.5016 32.0462 56.5015H32.0392C31.9481 56.5017 31.8581 56.5217 31.7755 56.5601C31.6928 56.5985 31.6195 56.6543 31.5605 56.7238C30.95 57.4374 30.1921 58.0103 29.339 58.403C28.486 58.7958 27.5579 58.999 26.6188 58.9988C25.6918 58.9986 24.7756 58.8003 23.9316 58.4172C23.0875 58.0341 22.335 57.4751 21.7246 56.7775C21.4756 56.493 20.9991 56.493 20.7501 56.7775C20.1397 57.475 19.3872 58.0341 18.5432 58.4171C17.6992 58.8002 16.783 58.9985 15.8561 58.9988C14.917 58.999 13.9889 58.7958 13.1358 58.4031C12.2827 58.0104 11.5249 57.4374 10.9144 56.7238C10.8554 56.6543 10.782 56.5985 10.6994 56.5602C10.6168 56.5218 10.5268 56.5018 10.4357 56.5015H10.4287C10.2422 56.5015 10.0644 56.581 9.93967 56.7203C9.32936 57.4017 8.58237 57.9469 7.74734 58.3204C6.91231 58.6939 6.00796 58.8873 5.09321 58.888C3.71091 58.8883 2.36457 58.4476 1.24999 57.63ZM40.1872 30.0233C39.7746 30.0254 39.3701 29.9096 39.0211 29.6896C38.6721 29.4697 38.3932 29.1546 38.2172 28.7815L37.0299 26.2976C36.8009 25.8193 36.3918 25.4512 35.8922 25.2736C30.4145 23.3568 26.8458 17.9618 27.214 12.1541C27.6298 5.59808 33.1022 0.26359 39.6729 0.0100904C43.2484 -0.128159 46.6291 1.15809 49.1991 3.63084C51.7708 6.10508 53.1871 9.43233 53.1871 13.0001C53.1871 18.5233 49.6853 23.4568 44.4736 25.2766C43.9844 25.4473 43.5726 25.8196 43.3441 26.2978L42.1569 28.7815C41.9809 29.1546 41.702 29.4696 41.3531 29.6896C41.0041 29.9096 40.5997 30.0254 40.1872 30.0233ZM39.7214 1.25909C33.783 1.48834 28.8373 6.30858 28.4618 12.2333C28.129 17.4841 31.3542 22.3613 36.3052 24.0936C37.1114 24.3756 37.7867 24.9823 38.1577 25.7583L39.3452 28.2425C39.5042 28.5748 39.8189 28.7733 40.1872 28.7733C40.5554 28.7733 40.8704 28.5748 41.0292 28.2425L42.2164 25.7588C42.5876 24.9823 43.2601 24.3763 44.0616 24.0963C48.7723 22.4518 51.9371 17.9923 51.9371 13.0001C51.9371 9.77558 50.6571 6.76808 48.3328 4.53183C46.0096 2.29659 42.9476 1.13184 39.7214 1.25909ZM52.6788 36.6813C52.5586 36.6814 52.4409 36.6468 52.3398 36.5816C52.2388 36.5165 52.1587 36.4236 52.1091 36.314L50.8811 33.6023C50.8334 33.4974 50.7566 33.4085 50.6598 33.3461C50.563 33.2837 50.4503 33.2504 50.3351 33.2503H9.34892C9.19012 33.2505 9.03788 33.3137 8.92559 33.426C8.8133 33.5382 8.75013 33.6905 8.74993 33.8493V35.8753C8.74993 36.0411 8.68408 36.2 8.56687 36.3172C8.44966 36.4344 8.29069 36.5003 8.12493 36.5003C7.95917 36.5003 7.8002 36.4344 7.68299 36.3172C7.56579 36.2 7.49994 36.0411 7.49994 35.8753V33.8493C7.49994 32.8295 8.32943 32.0003 9.34892 32.0003H50.3348C50.6903 32.0007 51.038 32.1034 51.3367 32.296C51.6354 32.4887 51.8724 32.7632 52.0193 33.0868L53.2473 35.7985C53.2904 35.8937 53.3089 35.9981 53.3012 36.1022C53.2936 36.2063 53.2599 36.3069 53.2034 36.3947C53.1469 36.4825 53.0692 36.5547 52.9776 36.6048C52.886 36.6548 52.7832 36.6811 52.6788 36.6813Z" fill="black"/>
<path id="Vector_23" d="M47.1247 33.0418C46.9589 33.0418 46.8 32.9759 46.6828 32.8587C46.5656 32.7415 46.4997 32.5825 46.4997 32.4168V30.172C46.4993 29.8613 46.3757 29.5634 46.156 29.3437C45.9363 29.124 45.6384 29.0004 45.3277 29H41.9057C41.74 29 41.581 28.9342 41.4638 28.817C41.3466 28.6997 41.2807 28.5408 41.2807 28.375C41.2807 28.2093 41.3466 28.0503 41.4638 27.9331C41.581 27.8159 41.74 27.75 41.9057 27.75H45.3277C46.6632 27.75 47.7497 28.8365 47.7497 30.172V32.4168C47.7497 32.5825 47.6838 32.7415 47.5666 32.8587C47.4494 32.9759 47.2905 33.0418 47.1247 33.0418ZM11.125 32.9375C10.9592 32.9375 10.8003 32.8717 10.6831 32.7544C10.5658 32.6372 10.5 32.4783 10.5 32.3125V30.1718C10.5 28.8363 11.5865 27.7498 12.922 27.7498H38.5728C38.7385 27.7498 38.8975 27.8156 39.0147 27.9328C39.1319 28.05 39.1978 28.209 39.1978 28.3748C39.1978 28.5405 39.1319 28.6995 39.0147 28.8167C38.8975 28.9339 38.7385 28.9998 38.5728 28.9998H12.922C12.6113 29.0001 12.3133 29.1237 12.0936 29.3434C11.8739 29.5631 11.7503 29.861 11.75 30.1718V32.3125C11.75 32.4783 11.6841 32.6372 11.5669 32.7544C11.4497 32.8717 11.2908 32.9375 11.125 32.9375Z" fill="black"/>
<path id="Vector_24" d="M29.1249 28.7188C28.9591 28.7188 28.8001 28.6529 28.6829 28.5357C28.5657 28.4185 28.4999 28.2595 28.4999 28.0938V24.3668C28.4999 24.1645 28.3354 24 28.1331 24H15.6167C15.4145 24 15.25 24.1645 15.25 24.3668V28.0628C15.25 28.2285 15.1841 28.3875 15.0669 28.5047C14.9497 28.6219 14.7908 28.6878 14.625 28.6878C14.4592 28.6878 14.3003 28.6219 14.1831 28.5047C14.0658 28.3875 14 28.2285 14 28.0628V24.3668C14.0005 23.9381 14.1709 23.5272 14.474 23.2241C14.7771 22.921 15.1881 22.7505 15.6167 22.75H28.1331C28.5618 22.7505 28.9727 22.921 29.2758 23.2241C29.5788 23.5272 29.7493 23.9381 29.7499 24.3668V28.0938C29.7499 28.2595 29.684 28.4185 29.5668 28.5357C29.4496 28.6529 29.2906 28.7188 29.1249 28.7188ZM59.7574 40.25H40.8123C40.6465 40.25 40.4876 40.1841 40.3703 40.0669C40.2531 39.9497 40.1873 39.7907 40.1873 39.625C40.1873 39.4592 40.2531 39.3003 40.3703 39.183C40.4876 39.0658 40.6465 39 40.8123 39H59.7574C59.9231 39 60.0821 39.0658 60.1993 39.183C60.3165 39.3003 60.3824 39.4592 60.3824 39.625C60.3824 39.7907 60.3165 39.9497 60.1993 40.0669C60.0821 40.1841 59.9231 40.25 59.7574 40.25ZM36.7928 11.599C35.1801 11.599 33.8681 10.287 33.8681 8.67453C33.8681 7.06203 35.1801 5.75003 36.7928 5.75003C38.4053 5.75003 39.7173 7.06203 39.7173 8.67453C39.7173 10.287 38.4053 11.599 36.7928 11.599ZM36.7928 7.00003C35.8693 7.00003 35.1181 7.75128 35.1181 8.67453C35.1181 9.59778 35.8693 10.349 36.7928 10.349C37.7161 10.349 38.4673 9.59778 38.4673 8.67453C38.4673 7.75128 37.7161 7.00003 36.7928 7.00003ZM43.5818 11.599C41.9693 11.599 40.6573 10.287 40.6573 8.67453C40.6573 7.06203 41.9693 5.75003 43.5818 5.75003C45.1945 5.75003 46.5065 7.06203 46.5065 8.67453C46.5065 10.287 45.1945 11.599 43.5818 11.599ZM43.5818 7.00003C42.6585 7.00003 41.9073 7.75128 41.9073 8.67453C41.9073 9.59778 42.6585 10.349 43.5818 10.349C44.5052 10.349 45.2565 9.59778 45.2565 8.67453C45.2565 7.75128 44.5052 7.00003 43.5818 7.00003ZM30.8796 13.6973C29.6191 13.6973 28.5934 12.6718 28.5934 11.4113C28.5934 10.1508 29.6191 9.12528 30.8796 9.12528C32.1401 9.12528 33.1658 10.1508 33.1658 11.4113C33.1658 12.6718 32.1401 13.6973 30.8796 13.6973ZM30.8796 10.375C30.3084 10.375 29.8434 10.8398 29.8434 11.411C29.8434 11.9823 30.3081 12.447 30.8796 12.447C31.4511 12.447 31.9159 11.9823 31.9159 11.411C31.9159 10.8398 31.4509 10.375 30.8796 10.375ZM49.495 13.6973C48.2345 13.6973 47.2087 12.6718 47.2087 11.4113C47.2087 10.1508 48.2345 9.12528 49.495 9.12528C50.7554 9.12528 51.7812 10.1508 51.7812 11.4113C51.7812 12.6718 50.7554 13.6973 49.495 13.6973ZM49.495 10.375C48.9237 10.375 48.4587 10.8398 48.4587 11.411C48.4587 11.9823 48.9235 12.447 49.495 12.447C50.0665 12.447 50.5312 11.9823 50.5312 11.411C50.5312 10.8398 50.0665 10.375 49.495 10.375Z" fill="black"/>
<path id="Vector_25" d="M51.4265 17.8275H47.0625C46.8967 17.8275 46.7378 17.7617 46.6206 17.6445C46.5033 17.5273 46.4375 17.3683 46.4375 17.2025V15.8535C46.4375 15.0115 46.79 14.1983 47.4045 13.6223C47.7093 13.3346 48.0704 13.1132 48.4651 12.972C48.8597 12.8309 49.2794 12.7731 49.6975 12.8023C51.2987 12.906 52.5532 14.2828 52.5532 15.937V16.7008C52.5529 16.9995 52.4341 17.2859 52.2228 17.4971C52.0116 17.7084 51.7252 17.8272 51.4265 17.8275ZM47.6875 16.5775H51.3032V15.937C51.3032 14.94 50.5625 14.111 49.617 14.0498C49.1097 14.0185 48.6277 14.189 48.2592 14.5343C48.078 14.7027 47.9336 14.9069 47.8352 15.134C47.7368 15.3611 47.6865 15.6061 47.6875 15.8535V16.5775Z" fill="black"/>
<path id="Vector_26" d="M46.9498 17.8275H40.2139C40.0481 17.8275 39.8891 17.7617 39.7719 17.6445C39.6547 17.5273 39.5889 17.3683 39.5889 17.2025V14.825C39.5889 12.6233 41.3801 10.8318 43.5818 10.8318C45.7838 10.8318 47.5751 12.6233 47.5751 14.825V17.2025C47.575 17.3683 47.5091 17.5273 47.3918 17.6445C47.2746 17.7617 47.1156 17.8275 46.9498 17.8275ZM40.8386 16.5775H46.3246V14.825C46.3246 13.3125 45.0941 12.0818 43.5813 12.0818C42.0688 12.0818 40.8384 13.3123 40.8384 14.825V16.5775H40.8386Z" fill="black"/>
<path id="Vector_27" d="M40.1607 17.8275H33.4248C33.259 17.8275 33.1001 17.7617 32.9829 17.6445C32.8657 17.5273 32.7998 17.3683 32.7998 17.2025V14.825C32.7998 12.6233 34.591 10.8318 36.793 10.8318C38.9948 10.8318 40.786 12.6233 40.786 14.825V17.2025C40.7859 17.3683 40.7199 17.5272 40.6027 17.6444C40.4855 17.7616 40.3265 17.8275 40.1607 17.8275ZM34.0495 16.5775H39.5355V14.825C39.5355 13.3125 38.305 12.0818 36.7925 12.0818C35.2798 12.0818 34.0493 13.3123 34.0493 14.825V16.5775H34.0495Z" fill="black"/>
<path id="Vector_28" d="M33.313 17.8275H28.949C28.6503 17.8272 28.3639 17.7084 28.1526 17.4971C27.9414 17.2859 27.8226 16.9995 27.8223 16.7008V15.8538C27.8223 15.0118 28.1748 14.1985 28.7893 13.6225C29.094 13.3347 29.4551 13.1132 29.8497 12.972C30.2444 12.8309 30.6641 12.7732 31.0822 12.8025C32.6835 12.9063 33.938 14.283 33.938 15.9373V17.2028C33.9379 17.3685 33.872 17.5274 33.7548 17.6445C33.6376 17.7617 33.4787 17.8275 33.313 17.8275ZM29.0723 16.5775H32.688V15.937C32.688 14.94 31.9472 14.111 31.0017 14.0498C30.4932 14.0173 30.0127 14.189 29.644 14.5345C29.2753 14.88 29.0723 15.3485 29.0723 15.8538V16.5775Z" fill="black"/>
</g>
</svg>
