<svg width="80" height="80" viewBox="0 0 80 80" fill="none" xmlns="http://www.w3.org/2000/svg">
<g id="32/Partly-cloudy">
<g id="Vector">
<path fill-rule="evenodd" clip-rule="evenodd" d="M37.5 5V12.5H42.5V5H37.5ZM51.5309 53.1642C55.1898 49.9566 57.5 45.2481 57.5 40C57.5 30.335 49.665 22.5 40 22.5C30.335 22.5 22.5 30.335 22.5 40C22.5 40.3545 22.5105 40.7066 22.5313 41.0559C20.8194 41.6575 19.2212 42.5005 17.7775 43.5441C17.5949 42.3896 17.5 41.2059 17.5 40C17.5 27.5736 27.5736 17.5 40 17.5C52.4264 17.5 62.5 27.5736 62.5 40C62.5 46.1713 60.0154 51.7624 55.992 55.8274C54.7216 54.6506 53.2062 53.7346 51.5309 53.1642ZM67.5 37.5H75V42.5H67.5V37.5ZM69.0608 20.3349L62.5656 24.0849L65.0656 28.4151L71.5608 24.6651L69.0608 20.3349ZM51.5851 14.9345L55.3351 8.43933L59.6652 10.9393L55.9152 17.4345L51.5851 14.9345ZM20.3349 10.9393L24.0849 17.4345L28.4151 14.9345L24.6651 8.43933L20.3349 10.9393ZM14.9344 28.4151L8.43918 24.6651L10.9392 20.3349L17.4344 24.0849L14.9344 28.4151ZM12.5 37.5H5V42.5H12.5V37.5ZM69.061 59.6651L62.5658 55.9151L65.0658 51.5849L71.561 55.3349L69.061 59.6651Z" fill="url(#paint0_linear_370_6555)"/>
<path fill-rule="evenodd" clip-rule="evenodd" d="M28.75 69.9994C28.8196 69.9994 28.889 69.9989 28.9583 69.9979H47.333C47.3649 69.9986 47.397 69.9991 47.429 69.9994H47.5C47.5 69.9994 47.5 69.9994 47.5 69.9994C51.6421 69.9994 55 66.6418 55 62.4997C55 58.3576 51.6422 54.9997 47.5 54.9997C45.5766 54.9997 43.8222 55.7238 42.4947 56.9142C42.5051 56.6941 42.5104 56.4727 42.5104 56.25C42.5104 54.5618 42.2062 52.9447 41.6496 51.4505C43.3951 50.5243 45.3863 49.9997 47.5 49.9997C54.4036 49.9997 60 55.5961 60 62.4997C60 69.4033 54.4036 74.9997 47.5 74.9997C47.4695 74.9997 47.4389 74.9996 47.4084 74.9994H28.8469C28.8146 74.9995 28.7823 74.9994 28.75 74.9994C18.3947 74.9994 10 66.6048 10 56.2494C10 45.8941 18.3947 37.4994 28.75 37.4994C36.9302 37.4994 43.8869 42.7378 46.4485 50.0431C44.7226 50.1869 43.0963 50.6813 41.641 51.4549C39.6951 46.225 34.6576 42.4994 28.75 42.4994C21.1561 42.4994 15 48.6555 15 56.2494C15 63.8433 21.1561 69.9994 28.75 69.9994Z" fill="url(#paint1_linear_370_6555)"/>
</g>
</g>
<defs>
<linearGradient id="paint0_linear_370_6555" x1="40" y1="5" x2="40" y2="74.9997" gradientUnits="userSpaceOnUse">
<stop stop-color="#EFC977"/>
<stop offset="1" stop-color="#E07256"/>
</linearGradient>
<linearGradient id="paint1_linear_370_6555" x1="40" y1="5" x2="40" y2="74.9997" gradientUnits="userSpaceOnUse">
<stop stop-color="#B2D4F7"/>
<stop offset="1" stop-color="#D9E2F3"/>
</linearGradient>
</defs>
</svg>
