<svg width="40" height="40" viewBox="0 0 40 40" fill="none" xmlns="http://www.w3.org/2000/svg">
<g id="vuesax/outline/play">
<g id="play">
<path id="Vector" d="M13.1167 35.4675C11.8 35.4675 10.55 35.1508 9.45 34.5175C6.85 33.0175 5.41666 29.9675 5.41666 25.9508V14.0675C5.41666 10.0341 6.85 7.0008 9.45 5.5008C12.05 4.0008 15.4 4.28413 18.9 6.3008L29.1833 12.2341C32.6667 14.2508 34.6 17.0175 34.6 20.0175C34.6 23.0175 32.6833 25.7841 29.1833 27.8008L18.9 33.7341C16.8833 34.8841 14.9167 35.4675 13.1167 35.4675ZM13.1167 7.03413C12.2167 7.03413 11.4167 7.23413 10.7 7.6508C8.9 8.68413 7.91666 10.9675 7.91666 14.0675V25.9341C7.91666 29.0341 8.9 31.3008 10.7 32.3508C12.5 33.4008 14.9667 33.1008 17.65 31.5508L27.9333 25.6175C30.6167 24.0675 32.1 22.0841 32.1 20.0008C32.1 17.9175 30.6167 15.9341 27.9333 14.3841L17.65 8.4508C16.0167 7.51746 14.4833 7.03413 13.1167 7.03413Z" fill="white"/>
</g>
</g>
</svg>
