<svg width="16" height="17" viewBox="0 0 16 17" fill="none" xmlns="http://www.w3.org/2000/svg">
<g id="Star_duotone">
<path id="Star 1" d="M6.76241 4.91852C7.28681 3.61119 7.54901 2.95752 7.9999 2.95752C8.45078 2.95752 8.71299 3.61119 9.23739 4.91852L9.26181 4.9794C9.55807 5.71797 9.7062 6.08726 10.0081 6.31172C10.31 6.53618 10.7063 6.57167 11.4989 6.64266L11.6422 6.65549C12.9394 6.77167 13.588 6.82975 13.7268 7.24241C13.8656 7.65507 13.3839 8.09329 12.4205 8.96975L12.099 9.26227C11.6114 9.70595 11.3675 9.92779 11.2539 10.2185C11.2327 10.2728 11.215 10.3283 11.2011 10.3849C11.1264 10.688 11.1978 11.0098 11.3406 11.6535L11.3851 11.8538C11.6475 13.0367 11.7787 13.6281 11.5496 13.8833C11.464 13.9786 11.3527 14.0472 11.2291 14.0809C10.8983 14.1712 10.4287 13.7885 9.48937 13.0231C8.87259 12.5205 8.5642 12.2692 8.21013 12.2127C8.07086 12.1905 7.92894 12.1905 7.78967 12.2127C7.4356 12.2692 7.12721 12.5205 6.51043 13.0231C5.57113 13.7885 5.10148 14.1712 4.77068 14.0809C4.64706 14.0472 4.53579 13.9786 4.45018 13.8833C4.22106 13.6281 4.35228 13.0367 4.61473 11.8538L4.65918 11.6535C4.80199 11.0098 4.87339 10.688 4.79869 10.3849C4.78475 10.3283 4.76713 10.2728 4.74593 10.2185C4.63228 9.92779 4.38844 9.70595 3.90077 9.26227L3.57925 8.96975C2.61589 8.0933 2.13421 7.65507 2.27299 7.24241C2.41178 6.82975 3.06038 6.77167 4.35759 6.65549L4.50088 6.64266C5.29349 6.57167 5.6898 6.53618 5.9917 6.31172C6.2936 6.08726 6.44173 5.71797 6.73799 4.97939L6.76241 4.91852Z" fill="#DD9800" stroke="#DD9800" stroke-width="1.4"/>
</g>
</svg>
