<svg width="80" height="80" viewBox="0 0 80 80" fill="none" xmlns="http://www.w3.org/2000/svg">
<g id="32/Sunny">
<path id="outline" fill-rule="evenodd" clip-rule="evenodd" d="M37.5 12.5V5H42.5V12.5H37.5ZM51.5851 14.9345L55.3351 8.43933L59.6652 10.9393L55.9152 17.4345L51.5851 14.9345ZM40 57.5C49.665 57.5 57.5 49.665 57.5 40C57.5 30.335 49.665 22.5 40 22.5C30.335 22.5 22.5 30.335 22.5 40C22.5 49.665 30.335 57.5 40 57.5ZM40 62.5C52.4264 62.5 62.5 52.4264 62.5 40C62.5 27.5736 52.4264 17.5 40 17.5C27.5736 17.5 17.5 27.5736 17.5 40C17.5 52.4264 27.5736 62.5 40 62.5ZM67.5 37.5H75V42.5H67.5V37.5ZM69.0608 20.3349L62.5656 24.0849L65.0656 28.4151L71.5608 24.6651L69.0608 20.3349ZM20.3349 10.9393L24.0849 17.4345L28.4151 14.9345L24.6651 8.43933L20.3349 10.9393ZM14.9344 28.4151L8.43918 24.6651L10.9392 20.3349L17.4344 24.0849L14.9344 28.4151ZM37.5 67.5V75H42.5V67.5H37.5ZM12.5 37.5H5V42.5H12.5V37.5ZM8.43904 55.3349L14.9342 51.5849L17.4342 55.9151L10.939 59.6651L8.43904 55.3349ZM24.0851 62.5659L20.3351 69.0611L24.6652 71.5611L28.4152 65.0659L24.0851 62.5659ZM55.3349 71.5611L51.5849 65.0659L55.9151 62.5659L59.6651 69.0611L55.3349 71.5611ZM62.5658 55.9151L69.061 59.6651L71.561 55.3349L65.0658 51.5849L62.5658 55.9151Z" fill="url(#paint0_linear_368_6273)"/>
</g>
<defs>
<linearGradient id="paint0_linear_368_6273" x1="40" y1="5" x2="40" y2="75" gradientUnits="userSpaceOnUse">
<stop stop-color="#EFC977"/>
<stop offset="1" stop-color="#E07256"/>
</linearGradient>
</defs>
</svg>
